<svg width="65" height="64" viewBox="0 0 65 64" fill="none" xmlns="http://www.w3.org/2000/svg">
<path d="M37.1211 38.78C37.3771 38.78 37.5771 38.856 37.7211 39.008C37.8651 39.152 37.9371 39.344 37.9371 39.584V41H26.3691V40.196C26.3691 40.036 26.4011 39.868 26.4651 39.692C26.5291 39.508 26.6371 39.344 26.7891 39.2L32.2371 33.74C32.6931 33.284 33.1051 32.844 33.4731 32.42C33.8411 31.996 34.1531 31.576 34.4091 31.16C34.6651 30.736 34.8611 30.304 34.9971 29.864C35.1411 29.424 35.2131 28.96 35.2131 28.472C35.2131 27.992 35.1371 27.572 34.9851 27.212C34.8331 26.844 34.6251 26.54 34.3611 26.3C34.0971 26.06 33.7851 25.88 33.4251 25.76C33.0651 25.64 32.6771 25.58 32.2611 25.58C31.8451 25.58 31.4611 25.64 31.1091 25.76C30.7651 25.88 30.4571 26.048 30.1851 26.264C29.9131 26.48 29.6851 26.736 29.5011 27.032C29.3171 27.328 29.1851 27.648 29.1051 27.992C28.9931 28.296 28.8491 28.5 28.6731 28.604C28.5051 28.708 28.2571 28.732 27.9291 28.676L26.7051 28.46C26.8171 27.66 27.0371 26.956 27.3651 26.348C27.6931 25.74 28.1051 25.232 28.6011 24.824C29.0971 24.408 29.6651 24.096 30.3051 23.888C30.9531 23.68 31.6491 23.576 32.3931 23.576C33.1451 23.576 33.8371 23.688 34.4691 23.912C35.1091 24.128 35.6611 24.444 36.1251 24.86C36.5891 25.276 36.9531 25.784 37.2171 26.384C37.4811 26.976 37.6131 27.648 37.6131 28.4C37.6131 29.04 37.5171 29.636 37.3251 30.188C37.1411 30.732 36.8851 31.252 36.5571 31.748C36.2371 32.244 35.8611 32.728 35.4291 33.2C35.0051 33.664 34.5531 34.136 34.0731 34.616L29.7051 39.08C30.0411 38.992 30.3771 38.92 30.7131 38.864C31.0571 38.808 31.3811 38.78 31.6851 38.78H37.1211Z" fill="#FF5E87"/>
<rect x="0.75" y="0.5" width="63" height="63" rx="31.5" stroke="#FF5E87" stroke-linecap="round" stroke-linejoin="bevel" stroke-dasharray="12 13"/>
</svg>
