<svg width="65" height="64" viewBox="0 0 65 64" fill="none" xmlns="http://www.w3.org/2000/svg">
<path d="M27.0271 28.46C27.1471 27.66 27.3711 26.956 27.6991 26.348C28.0271 25.74 28.4391 25.232 28.9351 24.824C29.4311 24.408 29.9991 24.096 30.6391 23.888C31.2871 23.68 31.9831 23.576 32.7271 23.576C33.4711 23.576 34.1551 23.684 34.7791 23.9C35.4031 24.108 35.9351 24.408 36.3751 24.8C36.8231 25.184 37.1711 25.648 37.4191 26.192C37.6671 26.736 37.7911 27.336 37.7911 27.992C37.7911 28.544 37.7231 29.032 37.5871 29.456C37.4511 29.88 37.2551 30.252 36.9991 30.572C36.7511 30.892 36.4471 31.164 36.0871 31.388C35.7271 31.604 35.3231 31.784 34.8751 31.928C35.9711 32.232 36.7951 32.728 37.3471 33.416C37.8991 34.096 38.1751 34.96 38.1751 36.008C38.1751 36.816 38.0231 37.544 37.7191 38.192C37.4151 38.832 36.9991 39.376 36.4711 39.824C35.9431 40.264 35.3271 40.604 34.6231 40.844C33.9271 41.076 33.1831 41.192 32.3911 41.192C31.4871 41.192 30.7111 41.084 30.0631 40.868C29.4151 40.644 28.8631 40.336 28.4071 39.944C27.9511 39.544 27.5711 39.068 27.2671 38.516C26.9711 37.956 26.7191 37.344 26.5111 36.68L27.5311 36.248C27.7951 36.136 28.0511 36.104 28.2991 36.152C28.5471 36.2 28.7271 36.34 28.8391 36.572C28.9591 36.812 29.0951 37.084 29.2471 37.388C29.4071 37.684 29.6191 37.968 29.8831 38.24C30.1471 38.504 30.4751 38.728 30.8671 38.912C31.2671 39.096 31.7671 39.188 32.3671 39.188C32.9431 39.188 33.4471 39.096 33.8791 38.912C34.3111 38.72 34.6711 38.476 34.9591 38.18C35.2471 37.876 35.4631 37.54 35.6071 37.172C35.7511 36.804 35.8231 36.44 35.8231 36.08C35.8231 35.632 35.7671 35.22 35.6551 34.844C35.5431 34.468 35.3271 34.148 35.0071 33.884C34.6951 33.612 34.2591 33.4 33.6991 33.248C33.1391 33.096 32.4111 33.02 31.5151 33.02V31.316C32.2511 31.308 32.8711 31.232 33.3751 31.088C33.8871 30.944 34.2991 30.744 34.6111 30.488C34.9231 30.232 35.1471 29.928 35.2831 29.576C35.4271 29.224 35.4991 28.832 35.4991 28.4C35.4991 27.928 35.4271 27.516 35.2831 27.164C35.1391 26.812 34.9351 26.52 34.6711 26.288C34.4151 26.048 34.1071 25.872 33.7471 25.76C33.3951 25.64 33.0111 25.58 32.5951 25.58C32.1791 25.58 31.7951 25.64 31.4431 25.76C31.0911 25.88 30.7791 26.048 30.5071 26.264C30.2351 26.48 30.0071 26.736 29.8231 27.032C29.6391 27.328 29.5071 27.648 29.4271 27.992C29.3151 28.296 29.1711 28.5 28.9951 28.604C28.8271 28.708 28.5831 28.732 28.2631 28.676L27.0271 28.46Z" fill="#3293FE"/>
<rect x="1" y="0.5" width="63" height="63" rx="31.5" stroke="#3293FE" stroke-linecap="round" stroke-linejoin="bevel" stroke-dasharray="12 13"/>
</svg>
