<svg width="65" height="64" viewBox="0 0 65 64" fill="none" xmlns="http://www.w3.org/2000/svg">
<path d="M34.5011 34.712V27.992C34.5011 27.76 34.5051 27.516 34.5131 27.26C34.5291 26.996 34.5571 26.724 34.5971 26.444L28.5611 34.712H34.5011ZM39.0491 34.712V36.068C39.0491 36.204 39.0051 36.32 38.9171 36.416C38.8291 36.512 38.7051 36.56 38.5451 36.56H36.5531V41H34.5011V36.56H26.9411C26.7651 36.56 26.6171 36.512 26.4971 36.416C26.3771 36.312 26.2971 36.184 26.2571 36.032L26.0171 34.832L34.3451 23.756H36.5531V34.712H39.0491Z" fill="#AB79FF"/>
<rect x="1.25" y="0.5" width="63" height="63" rx="31.5" stroke="#AB79FF" stroke-linecap="round" stroke-linejoin="bevel" stroke-dasharray="12 13"/>
</svg>
