<svg width="64" height="64" viewBox="0 0 64 64" fill="none" xmlns="http://www.w3.org/2000/svg">
<path d="M33.3 32.22C33.8336 31.7581 34.2616 31.1869 34.5549 30.545C34.8482 29.9032 35 29.2057 35 28.5C35 27.1739 34.4732 25.9021 33.5355 24.9645C32.5979 24.0268 31.3261 23.5 30 23.5C28.6739 23.5 27.4021 24.0268 26.4645 24.9645C25.5268 25.9021 25 27.1739 25 28.5C25 29.2057 25.1518 29.9032 25.4451 30.545C25.7384 31.1869 26.1664 31.7581 26.7 32.22C25.3001 32.8539 24.1125 33.8775 23.279 35.1685C22.4455 36.4596 22.0015 37.9633 22 39.5C22 39.7652 22.1054 40.0196 22.2929 40.2071C22.4804 40.3946 22.7348 40.5 23 40.5C23.2652 40.5 23.5196 40.3946 23.7071 40.2071C23.8946 40.0196 24 39.7652 24 39.5C24 37.9087 24.6321 36.3826 25.7574 35.2574C26.8826 34.1321 28.4087 33.5 30 33.5C31.5913 33.5 33.1174 34.1321 34.2426 35.2574C35.3679 36.3826 36 37.9087 36 39.5C36 39.7652 36.1054 40.0196 36.2929 40.2071C36.4804 40.3946 36.7348 40.5 37 40.5C37.2652 40.5 37.5196 40.3946 37.7071 40.2071C37.8946 40.0196 38 39.7652 38 39.5C37.9985 37.9633 37.5545 36.4596 36.721 35.1685C35.8875 33.8775 34.6999 32.8539 33.3 32.22V32.22ZM30 31.5C29.4067 31.5 28.8266 31.3241 28.3333 30.9944C27.8399 30.6648 27.4554 30.1962 27.2284 29.6481C27.0013 29.0999 26.9419 28.4967 27.0576 27.9147C27.1734 27.3328 27.4591 26.7982 27.8787 26.3787C28.2982 25.9591 28.8328 25.6734 29.4147 25.5576C29.9967 25.4419 30.5999 25.5013 31.1481 25.7284C31.6962 25.9554 32.1648 26.3399 32.4944 26.8333C32.8241 27.3266 33 27.9067 33 28.5C33 29.2956 32.6839 30.0587 32.1213 30.6213C31.5587 31.1839 30.7956 31.5 30 31.5ZM41.71 29.13C41.617 29.0363 41.5064 28.9619 41.3846 28.9111C41.2627 28.8603 41.132 28.8342 41 28.8342C40.868 28.8342 40.7373 28.8603 40.6154 28.9111C40.4936 28.9619 40.383 29.0363 40.29 29.13L38.29 31.13L37.67 30.5C37.577 30.4063 37.4664 30.3319 37.3446 30.2811C37.2227 30.2303 37.092 30.2042 36.96 30.2042C36.828 30.2042 36.6973 30.2303 36.5754 30.2811C36.4536 30.3319 36.343 30.4063 36.25 30.5C36.0637 30.6874 35.9592 30.9408 35.9592 31.205C35.9592 31.4692 36.0637 31.7226 36.25 31.91L37.59 33.25C37.7774 33.4363 38.0308 33.5408 38.295 33.5408C38.5592 33.5408 38.8126 33.4363 39 33.25L41.67 30.58C41.771 30.4893 41.8524 30.379 41.9094 30.2559C41.9664 30.1327 41.9977 29.9992 42.0014 29.8636C42.0052 29.7279 41.9813 29.5929 41.9312 29.4668C41.8811 29.3407 41.8058 29.2261 41.71 29.13V29.13Z" fill="#3293FE"/>
<rect x="0.5" y="0.5" width="63" height="63" rx="31.5" stroke="#3293FE" stroke-linecap="round" stroke-linejoin="bevel" stroke-dasharray="12 13"/>
</svg>
