<svg width="64" height="64" viewBox="0 0 64 64" fill="none" xmlns="http://www.w3.org/2000/svg">
<path d="M37.0899 22.8201C36.1702 22.0637 35.0933 21.5221 33.9376 21.2349C32.7819 20.9477 31.5767 20.9222 30.4099 21.1601C28.8563 21.4739 27.4309 22.2421 26.3146 23.3673C25.1983 24.4926 24.4414 25.924 24.1399 27.4801C23.9198 28.6468 23.9598 29.8477 24.2571 30.9972C24.5544 32.1467 25.1017 33.2164 25.8599 34.1301C26.5636 34.9241 26.967 35.9396 26.9999 37.0001V40.0001C26.9999 40.7957 27.316 41.5588 27.8786 42.1214C28.4412 42.684 29.2043 43.0001 29.9999 43.0001H33.9999C34.7956 43.0001 35.5587 42.684 36.1213 42.1214C36.6839 41.5588 36.9999 40.7957 36.9999 40.0001V37.1901C37.0335 36.0192 37.4637 34.8945 38.2199 34.0001C39.5451 32.3608 40.1697 30.2649 39.9581 28.1677C39.7465 26.0705 38.7158 24.1416 37.0899 22.8001V22.8201ZM34.9999 40.0001C34.9999 40.2653 34.8946 40.5196 34.707 40.7072C34.5195 40.8947 34.2652 41.0001 33.9999 41.0001H29.9999C29.7347 41.0001 29.4804 40.8947 29.2928 40.7072C29.1053 40.5196 28.9999 40.2653 28.9999 40.0001V39.0001H34.9999V40.0001ZM36.6699 32.7601C35.6644 33.9527 35.0778 35.4421 34.9999 37.0001H32.9999V34.0001C32.9999 33.7349 32.8946 33.4805 32.707 33.293C32.5195 33.1054 32.2652 33.0001 31.9999 33.0001C31.7347 33.0001 31.4804 33.1054 31.2928 33.293C31.1053 33.4805 30.9999 33.7349 30.9999 34.0001V37.0001H28.9999C28.9736 35.4682 28.4069 33.9948 27.3999 32.8401C26.7356 32.0441 26.2888 31.0895 26.1033 30.0694C25.9177 29.0493 25.9996 27.9986 26.341 27.0196C26.6825 26.0406 27.2718 25.1668 28.0515 24.4834C28.8312 23.8 29.7747 23.3303 30.7899 23.1201C31.6625 22.9404 32.5641 22.9573 33.4293 23.1695C34.2945 23.3818 35.1016 23.784 35.792 24.347C36.4824 24.91 37.0387 25.6197 37.4206 26.4246C37.8025 27.2294 38.0004 28.1092 37.9999 29.0001C38.0073 30.3699 37.537 31.6995 36.6699 32.7601V32.7601Z" fill="#FEC554"/>
<rect x="0.5" y="0.5" width="63" height="63" rx="31.5" stroke="#FEC554" stroke-linecap="round" stroke-linejoin="bevel" stroke-dasharray="12 13"/>
</svg>
