<svg width="612" height="58" viewBox="0 0 612 58" fill="none" xmlns="http://www.w3.org/2000/svg">
<path fill-rule="evenodd" clip-rule="evenodd" d="M226.904 23.7572C223.174 24.5546 219.466 25.401 215.779 26.3003C214.437 26.6272 213.617 27.9787 213.944 29.3172L213.961 29.3699C193.995 29.7114 174.034 30.2432 154.082 30.9704C125.259 32.022 96.2545 33.7565 67.5313 36.4547C39.1459 39.1209 31.3038 39.8066 6.88282 44.2702C6.18443 44.3978 4.83711 44.3895 4.11229 44.5919C3.42303 44.784 2.92966 45.119 2.61285 45.447C2.20704 45.8628 1.97369 46.3415 1.87489 46.8656C1.77036 47.4367 1.80165 48.1345 2.29241 48.914C3.67693 51.1021 5.91464 51.7032 8.64368 51.2422C10.9918 50.8453 13.8304 49.438 16.0547 49.2775C53.0836 46.6095 90.0874 43.6502 127.12 41.0358C183.813 37.0338 240.335 35.1511 296.865 34.0285C356.297 34.5568 415.7 36.7119 475.001 40.3683C513.622 42.748 552.162 46.2791 590.734 49.3686C590.705 49.5382 590.699 49.7152 590.708 49.8957C590.792 51.2708 591.982 52.3188 593.359 52.2353C594.754 52.1505 607.205 51.7979 609.5 51.233C610.815 50.9094 611.329 50.0989 611.499 49.7518C611.962 48.8 611.988 47.7657 610.957 46.7789C610.753 46.5895 610.373 46.2768 609.674 46.077C609.076 45.9018 607.596 45.6802 604.905 45.476C561.705 42.1603 518.558 38.0532 475.308 35.384C456 34.1962 436.68 33.1632 417.345 32.2988C443.588 31.9607 469.841 31.5767 496.135 31.013C497.267 30.9921 497.817 30.8084 497.918 30.7651C499.361 30.1426 499.462 29.0035 499.434 28.358C499.426 28.1276 499.232 26.2259 497.114 25.9588C495.874 25.8017 486.918 25.4959 483.472 25.3133C466.915 24.4205 467.301 24.5608 450.363 23.7901C413.115 22.1 375.921 20.9753 338.628 20.0658C323.76 19.7038 308.891 19.4124 294.02 19.1986C336.879 15.5575 380.625 15.7091 422.315 15.2629C443.822 15.0333 465.334 14.9373 486.84 15.2157C496.472 15.3407 506.102 15.627 515.733 15.8001C518.726 15.8535 521.709 15.9769 524.698 16.0482C525.053 16.0563 529.69 16.0946 530.451 16.0781C532.443 16.035 532.902 14.2635 532.92 14.1925C533.005 13.8591 533.334 11.4755 530.859 11.1075C495.1 5.79073 457.611 7.03364 421.492 6.16597C358.275 4.64709 294.89 4.96937 231.676 6.92643C203.716 7.79178 175.845 9.59895 147.924 11.397C133.979 12.2952 119.998 13.2471 106.186 15.4408C104.8 15.6612 101.66 15.8876 100.137 16.149C99.3615 16.2824 98.8096 16.4929 98.5568 16.6366C97.4492 17.2603 97.2287 18.1779 97.2109 18.8212C97.1999 19.3033 97.3024 21.0008 99.5841 21.5196C132.188 28.9417 168.368 24.1659 201.476 23.8871C209.952 23.8156 218.425 23.7728 226.904 23.7572ZM254.512 23.8029C244.691 25.3009 234.967 27.0795 225.381 29.1963C249.217 28.8753 273.054 28.825 296.9 29.0376C336.24 28.2564 375.579 27.842 414.966 27.3374C389.499 26.401 364.024 25.6779 338.507 25.056C310.518 24.3735 282.516 23.9437 254.512 23.8029ZM390.822 10.5649C337.834 9.78504 284.773 10.2759 231.835 11.9149C203.925 12.779 176.113 14.5834 148.246 16.3781C137.281 17.0843 126.286 17.8201 115.377 19.1839C143.563 22.6512 173.597 19.1302 201.435 18.8962C219.015 18.7482 236.605 18.7219 254.189 18.8096C298.898 12.0397 345.604 11.0194 390.822 10.5649Z" fill="#FEC554"/>
</svg>
