<svg width="150" height="36" viewBox="0 0 150 36" fill="none" xmlns="http://www.w3.org/2000/svg">
<g clip-path="url(#clip0_559_1886)">
<path d="M46.2819 24.7032H56.7748V21.5426H50.0113V9.63794H46.2819V24.7032Z" fill="black"/>
<path d="M62.9915 22.596C61.4955 22.596 60.7159 21.2897 60.7159 19.3302C60.7159 17.3706 61.4955 16.0432 62.9915 16.0432C64.4875 16.0432 65.2881 17.3706 65.2881 19.3302C65.2881 21.2897 64.4875 22.596 62.9915 22.596ZM63.0126 25.0402C66.4891 25.0402 68.7647 22.575 68.7647 19.3302C68.7647 16.0853 66.4891 13.6201 63.0126 13.6201C59.557 13.6201 57.2393 16.0853 57.2393 19.3302C57.2393 22.575 59.557 25.0402 63.0126 25.0402Z" fill="black"/>
<path d="M74.7825 28.4326C76.3839 28.4326 77.7956 28.0744 78.7437 27.2316C79.6076 26.452 80.1765 25.272 80.1765 23.6496V13.9152H76.8896V15.074H76.8474C76.2153 14.168 75.2461 13.5991 73.8133 13.5991C71.1374 13.5991 69.2832 15.8326 69.2832 18.9931C69.2832 22.3011 71.5377 24.1132 73.9608 24.1132C75.2672 24.1132 76.0889 23.5864 76.721 22.87H76.8053V23.9446C76.8053 25.251 76.1942 26.0095 74.7404 26.0095C73.6026 26.0095 73.0337 25.5249 72.8441 24.956H69.515C69.8521 27.2105 71.8116 28.4326 74.7825 28.4326ZM74.7615 21.5637C73.4762 21.5637 72.6334 20.5102 72.6334 18.8877C72.6334 17.2443 73.4762 16.1908 74.7615 16.1908C76.1942 16.1908 76.9528 17.4128 76.9528 18.8667C76.9528 20.3837 76.2574 21.5637 74.7615 21.5637Z" fill="black"/>
<path d="M86.935 22.596C85.4391 22.596 84.6594 21.2897 84.6594 19.3302C84.6594 17.3706 85.4391 16.0432 86.935 16.0432C88.431 16.0432 89.2317 17.3706 89.2317 19.3302C89.2317 21.2897 88.431 22.596 86.935 22.596ZM86.9561 25.0402C90.4327 25.0402 92.7083 22.575 92.7083 19.3302C92.7083 16.0853 90.4327 13.6201 86.9561 13.6201C83.5006 13.6201 81.1829 16.0853 81.1829 19.3302C81.1829 22.575 83.5006 25.0402 86.9561 25.0402Z" fill="black"/>
<path d="M93.7109 24.7032H97.1453V13.9152H93.7109V24.7032ZM93.7109 12.4192H97.1453V9.63794H93.7109V12.4192Z" fill="black"/>
<path d="M98.636 28.264H102.07V23.5864H102.113C102.787 24.4924 103.777 25.0403 105.168 25.0403C107.991 25.0403 109.866 22.8068 109.866 19.3092C109.866 16.0643 108.118 13.5991 105.252 13.5991C103.777 13.5991 102.724 14.2523 101.986 15.2215H101.923V13.9152H98.636V28.264ZM104.283 22.3854C102.808 22.3854 101.965 21.1844 101.965 19.4356C101.965 17.6867 102.724 16.3593 104.22 16.3593C105.695 16.3593 106.39 17.5814 106.39 19.4356C106.39 21.2687 105.589 22.3854 104.283 22.3854Z" fill="black"/>
<path d="M115.458 25.0403C118.281 25.0403 120.367 23.8182 120.367 21.4583C120.367 18.6981 118.134 18.2135 116.238 17.8974C114.868 17.6446 113.646 17.5393 113.646 16.7807C113.646 16.1065 114.299 15.7904 115.142 15.7904C116.09 15.7904 116.743 16.0854 116.87 17.0546H120.03C119.862 14.9265 118.218 13.5991 115.163 13.5991C112.613 13.5991 110.506 14.7791 110.506 17.0546C110.506 19.5831 112.508 20.0888 114.383 20.4048C115.816 20.6577 117.122 20.763 117.122 21.7322C117.122 22.4275 116.469 22.8068 115.437 22.8068C114.299 22.8068 113.583 22.2801 113.456 21.2055H110.211C110.317 23.5864 112.297 25.0403 115.458 25.0403Z" fill="black"/>
<path d="M125.033 25.0193C126.529 25.0193 127.477 24.4293 128.256 23.3758H128.32V24.7032H131.607V13.9153H128.172V19.9414C128.172 21.2267 127.456 22.1116 126.276 22.1116C125.18 22.1116 124.653 21.4584 124.653 20.2785V13.9153H121.24V20.9949C121.24 23.3969 122.546 25.0193 125.033 25.0193Z" fill="black"/>
<path d="M133.1 24.7031H136.534V18.656C136.534 17.3707 137.166 16.4647 138.241 16.4647C139.273 16.4647 139.758 17.1389 139.758 18.2978V24.7031H143.193V18.656C143.193 17.3707 143.804 16.4647 144.899 16.4647C145.932 16.4647 146.416 17.1389 146.416 18.2978V24.7031H149.851V17.6867C149.851 15.2637 148.629 13.5991 146.185 13.5991C144.794 13.5991 143.635 14.1891 142.792 15.4954H142.75C142.202 14.3366 141.128 13.5991 139.716 13.5991C138.157 13.5991 137.124 14.3366 136.45 15.4533H136.387V13.9152H133.1V24.7031Z" fill="black"/>
<path fill-rule="evenodd" clip-rule="evenodd" d="M18.9116 35.2381C28.6089 35.2381 36.4702 27.3769 36.4702 17.6796C36.4702 7.98232 28.6089 0.121094 18.9116 0.121094C9.21429 0.121094 1.35309 7.98232 1.35309 17.6796C1.35309 27.3769 9.21429 35.2381 18.9116 35.2381ZM24.3893 8.30059C24.6559 7.3535 23.7368 6.79345 22.8974 7.39147L11.1798 15.739C10.2695 16.3876 10.4127 17.6796 11.3949 17.6796H14.4805V17.6557H20.4941L15.5941 19.3846L13.434 27.0587C13.1674 28.0058 14.0864 28.5658 14.9258 27.9678L26.6434 19.6203C27.5538 18.9717 27.4105 17.6796 26.4284 17.6796H21.7492L24.3893 8.30059Z" fill="#AB79FF"/>
</g>
<defs>
<clipPath id="clip0_559_1886">
<rect width="149.247" height="35.995" fill="white" transform="translate(0.752441)"/>
</clipPath>
</defs>
</svg>
