<svg width="148" height="36" viewBox="0 0 148 36" fill="none" xmlns="http://www.w3.org/2000/svg">
<g clip-path="url(#clip0_559_1845)">
<path d="M43.262 25.4182H53.7549V22.2577H46.9914V10.353H43.262V25.4182Z" fill="black"/>
<path d="M59.9718 23.3111C58.4758 23.3111 57.6962 22.0048 57.6962 20.0452C57.6962 18.0857 58.4758 16.7583 59.9718 16.7583C61.4678 16.7583 62.2684 18.0857 62.2684 20.0452C62.2684 22.0048 61.4678 23.3111 59.9718 23.3111ZM59.9928 25.7553C63.4694 25.7553 65.745 23.2901 65.745 20.0452C65.745 16.8004 63.4694 14.3352 59.9928 14.3352C56.5373 14.3352 54.2196 16.8004 54.2196 20.0452C54.2196 23.2901 56.5373 25.7553 59.9928 25.7553Z" fill="black"/>
<path d="M71.7626 29.1477C73.364 29.1477 74.7757 28.7895 75.7238 27.9467C76.5877 27.1671 77.1566 25.9871 77.1566 24.3647V14.6303H73.8697V15.7891H73.8275C73.1954 14.8831 72.2262 14.3142 70.7934 14.3142C68.1175 14.3142 66.2633 16.5477 66.2633 19.7082C66.2633 23.0162 68.5178 24.8283 70.9409 24.8283C72.2473 24.8283 73.069 24.3015 73.7011 23.5851H73.7854V24.6597C73.7854 25.966 73.1743 26.7246 71.7205 26.7246C70.5827 26.7246 70.0138 26.24 69.8242 25.6711H66.4951C66.8322 27.9256 68.7917 29.1477 71.7626 29.1477ZM71.7416 22.2788C70.4563 22.2788 69.6135 21.2252 69.6135 19.6028C69.6135 17.9594 70.4563 16.9058 71.7416 16.9058C73.1743 16.9058 73.9329 18.1279 73.9329 19.5818C73.9329 21.0988 73.2376 22.2788 71.7416 22.2788Z" fill="black"/>
<path d="M83.9153 23.3111C82.4193 23.3111 81.6397 22.0048 81.6397 20.0452C81.6397 18.0857 82.4193 16.7583 83.9153 16.7583C85.4112 16.7583 86.2119 18.0857 86.2119 20.0452C86.2119 22.0048 85.4112 23.3111 83.9153 23.3111ZM83.9363 25.7553C87.4129 25.7553 89.6881 23.2901 89.6881 20.0452C89.6881 16.8004 87.4129 14.3352 83.9363 14.3352C80.4808 14.3352 78.1631 16.8004 78.1631 20.0452C78.1631 23.2901 80.4808 25.7553 83.9363 25.7553Z" fill="black"/>
<path d="M90.6915 25.4182H94.126V14.6303H90.6915V25.4182ZM90.6915 13.1343H94.126V10.353H90.6915V13.1343Z" fill="black"/>
<path d="M95.6158 28.9791H99.0503V24.3015H99.0924C99.7667 25.2075 100.757 25.7553 102.148 25.7553C104.971 25.7553 106.846 23.5219 106.846 20.0242C106.846 16.7794 105.097 14.3142 102.232 14.3142C100.757 14.3142 99.7035 14.9674 98.966 15.9366H98.9028V14.6303H95.6158V28.9791ZM101.263 23.1005C99.7878 23.1005 98.9449 21.8995 98.9449 20.1507C98.9449 18.4018 99.7035 17.0744 101.199 17.0744C102.674 17.0744 103.37 18.2965 103.37 20.1507C103.37 21.9838 102.569 23.1005 101.263 23.1005Z" fill="black"/>
<path d="M112.438 25.7553C115.261 25.7553 117.347 24.5333 117.347 22.1734C117.347 19.4132 115.114 18.9286 113.217 18.6125C111.848 18.3597 110.626 18.2543 110.626 17.4958C110.626 16.8216 111.279 16.5055 112.122 16.5055C113.07 16.5055 113.723 16.8005 113.849 17.7697H117.01C116.841 15.6416 115.198 14.3142 112.143 14.3142C109.593 14.3142 107.486 15.4941 107.486 17.7697C107.486 20.2982 109.488 20.8038 111.363 21.1199C112.796 21.3727 114.102 21.4781 114.102 22.4473C114.102 23.1426 113.449 23.5219 112.417 23.5219C111.279 23.5219 110.563 22.9951 110.436 21.9206H107.191C107.297 24.3015 109.277 25.7553 112.438 25.7553Z" fill="black"/>
<path d="M122.012 25.7341C123.508 25.7341 124.457 25.1442 125.236 24.0907H125.299V25.4181H128.586V14.6301H125.152V20.6562C125.152 21.9415 124.436 22.8264 123.256 22.8264C122.16 22.8264 121.633 22.1733 121.633 20.9933V14.6301H118.22V21.7097C118.22 24.1117 119.526 25.7341 122.012 25.7341Z" fill="black"/>
<path d="M130.081 25.4182H133.515V19.3711C133.515 18.0858 134.147 17.1798 135.222 17.1798C136.254 17.1798 136.739 17.854 136.739 19.0129V25.4182H140.173V19.3711C140.173 18.0858 140.784 17.1798 141.88 17.1798C142.912 17.1798 143.397 17.854 143.397 19.0129V25.4182H146.831V18.4018C146.831 15.9788 145.609 14.3142 143.165 14.3142C141.775 14.3142 140.616 14.9042 139.773 16.2105H139.731C139.183 15.0517 138.108 14.3142 136.697 14.3142C135.137 14.3142 134.105 15.0517 133.431 16.1684H133.368V14.6303H130.081V25.4182Z" fill="black"/>
<path d="M22.3081 1.73576L18.8552 0.810547L15.9454 11.6701L13.3184 1.86602L9.86539 2.79124L12.7037 13.3838L5.63411 6.31425L3.10639 8.84197L10.8609 16.5965L1.2039 14.0089L0.278687 17.4618L10.8301 20.2891C10.7093 19.768 10.6454 19.2251 10.6454 18.6673C10.6454 14.7187 13.8464 11.5178 17.7949 11.5178C21.7435 11.5178 24.9444 14.7187 24.9444 18.6673C24.9444 19.2215 24.8813 19.7611 24.762 20.2791L34.3513 22.8485L35.2764 19.3956L24.683 16.5571L34.3407 13.9693L33.4154 10.5164L22.8224 13.3548L29.892 6.28522L27.3643 3.75751L19.7174 11.4045L22.3081 1.73576Z" fill="#FF5E87"/>
<path d="M24.7525 20.3191C24.4564 21.5707 23.8314 22.695 22.9739 23.5959L29.9209 30.543L32.4486 28.0153L24.7525 20.3191Z" fill="#FF5E87"/>
<path d="M22.9037 23.6687C22.0358 24.5551 20.939 25.2167 19.709 25.5576L22.2369 34.9918L25.6898 34.0665L22.9037 23.6687Z" fill="#FF5E87"/>
<path d="M19.5801 25.5918C19.0094 25.7385 18.4113 25.8165 17.7949 25.8165C17.1345 25.8165 16.4951 25.7269 15.888 25.5593L13.3578 35.0021L16.8107 35.9273L19.5801 25.5918Z" fill="#FF5E87"/>
<path d="M15.7659 25.5247C14.5547 25.1668 13.4774 24.4969 12.6272 23.6079L5.66309 30.5721L8.1908 33.0998L15.7659 25.5247Z" fill="#FF5E87"/>
<path d="M12.5691 23.5463C11.7335 22.6517 11.1248 21.5423 10.8351 20.3101L1.21448 22.8879L2.13968 26.3408L12.5691 23.5463Z" fill="#FF5E87"/>
</g>
<defs>
<clipPath id="clip0_559_1845">
<rect width="147.492" height="35.995" fill="white"/>
</clipPath>
</defs>
</svg>
