<svg width="127" height="28" viewBox="0 0 127 28" fill="none" xmlns="http://www.w3.org/2000/svg">
<circle cx="112.168" cy="22.1113" r="5.56204" fill="#FEC554"/>
<circle cx="103.361" cy="22.1113" r="5.56204" fill="#3293FE"/>
<path d="M23.6362 26.747C23.7105 26.747 23.7477 26.8211 23.7477 26.9693C23.7477 27.1175 23.7105 27.1916 23.6362 27.1916H19.4739C19.0774 27.1916 18.743 27.204 18.4704 27.2287C18.1979 27.2534 17.9749 27.2658 17.8015 27.2658C17.4051 27.2658 17.0582 27.1793 16.7609 27.0064C16.4884 26.8087 16.1415 26.4629 15.7203 25.9688C15.3239 25.4748 14.6054 24.5237 13.5648 23.1156C13.4409 22.9426 13.2923 22.7574 13.1188 22.5597C12.9702 22.3374 12.7968 22.0904 12.5985 21.8186L7.73008 15.2969L6.91248 16.1121V24.1902C6.91248 24.956 6.97442 25.5118 7.0983 25.8577C7.22218 26.2035 7.45755 26.4382 7.80441 26.5617C8.17605 26.6852 8.75828 26.747 9.55111 26.747C9.65022 26.747 9.69977 26.8211 9.69977 26.9693C9.69977 27.1175 9.65022 27.1916 9.55111 27.1916C8.73351 27.1916 8.08933 27.1793 7.61859 27.1546L4.8313 27.1175L2.08118 27.1546C1.58566 27.1793 0.916709 27.1916 0.0743277 27.1916C0.0247759 27.1916 0 27.1175 0 26.9693C0 26.8211 0.0247759 26.747 0.0743277 26.747C0.867157 26.747 1.44939 26.6852 1.82103 26.5617C2.19267 26.4382 2.44043 26.2035 2.56431 25.8577C2.71296 25.4871 2.78729 24.9313 2.78729 24.1902V7.03363C2.78729 6.29253 2.71296 5.74905 2.56431 5.4032C2.44043 5.05735 2.19267 4.82267 1.82103 4.69915C1.47417 4.55093 0.916709 4.47682 0.148655 4.47682C0.0743277 4.47682 0.0371638 4.40271 0.0371638 4.25449C0.0371638 4.10627 0.0743277 4.03216 0.148655 4.03216L2.11834 4.06922C3.25803 4.11862 4.16235 4.14333 4.8313 4.14333C5.57458 4.14333 6.51606 4.11862 7.65576 4.06922L9.55111 4.03216C9.62544 4.03216 9.6626 4.10627 9.6626 4.25449C9.6626 4.40271 9.62544 4.47682 9.55111 4.47682C8.78306 4.47682 8.21321 4.55093 7.84157 4.69915C7.49471 4.84738 7.24695 5.10676 7.0983 5.47731C6.97442 5.82316 6.91248 6.36664 6.91248 7.10774V14.9634L13.8993 7.84884C14.6178 7.13244 14.977 6.4778 14.977 5.88492C14.977 5.44026 14.7788 5.09441 14.3824 4.84738C13.986 4.60034 13.4285 4.47682 12.71 4.47682C12.6357 4.47682 12.5985 4.40271 12.5985 4.25449C12.5985 4.10627 12.6357 4.03216 12.71 4.03216L14.4567 4.06922C15.5469 4.11862 16.5627 4.14333 17.5042 4.14333C18.52 4.14333 19.573 4.11862 20.6631 4.06922L22.3355 4.03216C22.4098 4.03216 22.447 4.10627 22.447 4.25449C22.447 4.40271 22.4098 4.47682 22.3355 4.47682C21.1958 4.47682 19.9446 4.81032 18.5819 5.47731C17.2193 6.1196 15.9805 6.98422 14.8655 8.07117L10.666 12.3325L16.1663 19.7436C17.7767 22.041 18.9783 23.6714 19.7712 24.6348C20.5888 25.5736 21.2453 26.1665 21.7409 26.4135C22.2364 26.6358 22.8682 26.747 23.6362 26.747Z" fill="black"/>
<path d="M41.3573 26.747C41.4316 26.747 41.4688 26.8211 41.4688 26.9693C41.4688 27.1175 41.4316 27.1916 41.3573 27.1916C40.7131 27.1916 40.2052 27.1793 39.8336 27.1546L37.6037 27.1175L35.4482 27.1546C35.0518 27.1793 34.5315 27.1916 33.8873 27.1916C33.813 27.1916 33.7759 27.1175 33.7759 26.9693C33.7759 26.8211 33.813 26.747 33.8873 26.747C34.6554 26.747 35.1757 26.5741 35.4482 26.2282C35.7208 25.8577 35.857 25.1783 35.857 24.1902V18.8542C35.857 17.5202 35.6093 16.5321 35.1138 15.8898C34.643 15.2475 33.8873 14.9264 32.8468 14.9264C32.2521 14.9264 31.6327 15.0499 30.9886 15.2969C30.3692 15.544 29.8241 15.8775 29.3534 16.2974V24.1902C29.3534 25.1783 29.4896 25.8577 29.7622 26.2282C30.0595 26.5741 30.5921 26.747 31.3602 26.747C31.4345 26.747 31.4717 26.8211 31.4717 26.9693C31.4717 27.1175 31.4345 27.1916 31.3602 27.1916C30.716 27.1916 30.2081 27.1793 29.8365 27.1546L27.6067 27.1175L25.414 27.1546C25.0423 27.1793 24.5344 27.1916 23.8903 27.1916C23.8159 27.1916 23.7788 27.1175 23.7788 26.9693C23.7788 26.8211 23.8159 26.747 23.8903 26.747C24.6583 26.747 25.1786 26.5741 25.4511 26.2282C25.7237 25.8577 25.86 25.1783 25.86 24.1902V17.2238C25.86 16.458 25.7608 15.9022 25.5626 15.5563C25.3892 15.1858 25.1043 15.0005 24.7079 15.0005C24.2867 15.0005 23.6921 15.1734 22.924 15.5193H22.8497C22.7754 15.5193 22.7134 15.4575 22.6639 15.334C22.6391 15.2105 22.6515 15.1364 22.701 15.1117L27.8668 12.5919C28.0155 12.5425 28.1022 12.5178 28.1269 12.5178C28.3995 12.5178 28.6596 12.7895 28.9074 13.333C29.1551 13.8518 29.3038 14.5682 29.3534 15.4822C31.0629 13.4565 32.9459 12.4437 35.0023 12.4437C36.3402 12.4437 37.3931 12.876 38.1612 13.7406C38.954 14.5805 39.3504 15.6922 39.3504 17.0756V24.1902C39.3504 25.1783 39.4867 25.8577 39.7592 26.2282C40.0565 26.5741 40.5892 26.747 41.3573 26.747Z" fill="black"/>
<path d="M50.8106 27.6734C49.2744 27.6734 47.9242 27.3275 46.7597 26.6358C45.62 25.9194 44.7404 24.9683 44.1211 23.7826C43.5017 22.5721 43.192 21.2628 43.192 19.8547C43.192 18.249 43.6008 16.8903 44.4184 15.7786C45.236 14.6423 46.2766 13.8024 47.5401 13.2589C48.8037 12.6907 50.1044 12.4066 51.4423 12.4066C52.9784 12.4066 54.3163 12.7648 55.456 13.4812C56.5957 14.1976 57.4629 15.1487 58.0575 16.3345C58.6769 17.4955 58.9866 18.7431 58.9866 20.0771C58.9866 21.5593 58.615 22.8809 57.8717 24.042C57.1284 25.1783 56.125 26.0676 54.8614 26.7099C53.6226 27.3522 52.2723 27.6734 50.8106 27.6734ZM51.9255 26.8952C52.8917 26.8952 53.6226 26.4258 54.1181 25.4871C54.6384 24.5237 54.8986 23.1526 54.8986 21.374C54.8986 19.6447 54.6756 18.1625 54.2296 16.9274C53.7837 15.6922 53.2014 14.7658 52.4829 14.1482C51.7644 13.5059 50.9964 13.1848 50.1788 13.1848C48.1967 13.1848 47.2057 14.9511 47.2057 18.4837C47.2057 20.1388 47.4162 21.6087 47.8374 22.8932C48.2586 24.1531 48.8285 25.1413 49.547 25.8577C50.2655 26.5494 51.0583 26.8952 51.9255 26.8952Z" fill="black"/>
<path d="M68.8818 27.6363C67.2466 27.6363 65.8591 27.2905 64.7194 26.5988C63.6045 25.8824 62.7621 24.9683 62.1923 23.8567C61.6472 22.7203 61.3747 21.5346 61.3747 20.2994C61.3747 18.7431 61.8082 17.3844 62.6754 16.2233C63.5426 15.0375 64.6451 14.1359 65.983 13.5183C67.3457 12.876 68.7331 12.5549 70.1453 12.5549C71.3346 12.5549 72.3999 12.8019 73.3414 13.296C74.3077 13.79 74.7908 14.4694 74.7908 15.334C74.7908 15.8034 74.605 16.211 74.2334 16.5568C73.8865 16.878 73.391 17.0385 72.7468 17.0385C72.1522 17.0385 71.6814 16.8903 71.3346 16.5939C70.9877 16.2727 70.7028 15.791 70.4798 15.1487C70.2568 14.457 70.0338 13.9877 69.8109 13.7406C69.6127 13.4689 69.241 13.333 68.6959 13.333C67.6306 13.333 66.7758 13.8641 66.1316 14.9264C65.5122 15.9639 65.2025 17.3473 65.2025 19.0766C65.2025 21.1269 65.6609 22.7697 66.5776 24.0049C67.4943 25.2154 68.9561 25.8206 70.9629 25.8206C71.6319 25.8206 72.2017 25.7465 72.6725 25.5983C73.168 25.45 73.7874 25.203 74.5307 24.8572H74.5678C74.6422 24.8572 74.7041 24.8942 74.7537 24.9683C74.828 25.0424 74.8404 25.1042 74.7908 25.1536C73.8741 25.9935 72.9574 26.6235 72.0407 27.0434C71.124 27.4387 70.071 27.6363 68.8818 27.6363Z" fill="black"/>
<path d="M94.4433 26.747C94.5176 26.747 94.5547 26.8211 94.5547 26.9693C94.5547 27.1175 94.5176 27.1916 94.4433 27.1916C93.7991 27.1916 93.2912 27.1793 92.9195 27.1546L90.6897 27.1175L87.8281 27.1546C87.4069 27.1793 86.8371 27.1916 86.1185 27.1916C86.0442 27.1916 86.007 27.1175 86.007 26.9693C86.007 26.8211 86.0442 26.747 86.1185 26.747C87.0105 26.747 87.4565 26.4876 87.4565 25.9688C87.4565 25.6971 87.3573 25.45 87.1591 25.2277L82.9225 19.8177L82.2163 20.4476V24.1902C82.2163 25.1783 82.3526 25.8577 82.6251 26.2282C82.9225 26.5741 83.4551 26.747 84.2232 26.747C84.3223 26.747 84.3718 26.8211 84.3718 26.9693C84.3718 27.1175 84.3223 27.1916 84.2232 27.1916C83.579 27.1916 83.0587 27.1793 82.6623 27.1546L80.5068 27.1175L78.277 27.1546C77.9053 27.1793 77.3974 27.1916 76.7533 27.1916C76.7037 27.1916 76.6789 27.1175 76.6789 26.9693C76.6789 26.8211 76.7037 26.747 76.7533 26.747C77.5213 26.747 78.0416 26.5741 78.3141 26.2282C78.6114 25.8577 78.7601 25.1783 78.7601 24.1902V5.36615C78.7601 4.50153 78.6734 3.88394 78.4999 3.51339C78.3513 3.14284 78.0788 2.95756 77.6823 2.95756C77.3355 2.95756 76.8647 3.09343 76.2701 3.36517H76.2329C76.1586 3.36517 76.0843 3.30341 76.01 3.17989C75.9604 3.03167 75.9604 2.94521 76.01 2.92051L81.4359 0.3637L81.6217 0.326645C81.7456 0.326645 81.8695 0.388404 81.9934 0.511921C82.142 0.610735 82.2163 0.709549 82.2163 0.808363V19.5953L85.6726 16.2604C86.3168 15.6675 86.6388 15.0623 86.6388 14.4447C86.6388 14.1235 86.515 13.8641 86.2672 13.6665C86.0194 13.4442 85.6726 13.333 85.2266 13.333C85.1771 13.333 85.1523 13.2589 85.1523 13.1107C85.1523 12.9625 85.1771 12.8883 85.2266 12.8883C85.9451 12.8883 86.5026 12.9007 86.899 12.9254L89.8349 12.9625L92.5479 12.9254C92.8948 12.9007 93.3779 12.8883 93.9973 12.8883C94.0716 12.8883 94.1088 12.9625 94.1088 13.1107C94.1088 13.2589 94.0716 13.333 93.9973 13.333C92.9319 13.333 91.7055 13.6047 90.3181 14.1482C88.9554 14.667 87.729 15.4328 86.6388 16.4456L85.3009 17.6685L90.3924 24.1902C91.1109 25.0795 91.7922 25.7341 92.4364 26.1541C93.1054 26.5494 93.7743 26.747 94.4433 26.747Z" fill="black"/>
</svg>
