<svg width="151" height="36" viewBox="0 0 151 36" fill="none" xmlns="http://www.w3.org/2000/svg">
<g clip-path="url(#clip0_559_1864)">
<path d="M45.8313 25.7437H56.3243V22.5831H49.5607V10.6785H45.8313V25.7437Z" fill="black"/>
<path d="M62.541 23.6366C61.045 23.6366 60.2654 22.3302 60.2654 20.3707C60.2654 18.4111 61.045 17.0837 62.541 17.0837C64.037 17.0837 64.8376 18.4111 64.8376 20.3707C64.8376 22.3302 64.037 23.6366 62.541 23.6366ZM62.5621 26.0807C66.0387 26.0807 68.3142 23.6155 68.3142 20.3707C68.3142 17.1259 66.0387 14.6606 62.5621 14.6606C59.1065 14.6606 56.7888 17.1259 56.7888 20.3707C56.7888 23.6155 59.1065 26.0807 62.5621 26.0807Z" fill="black"/>
<path d="M74.3319 29.4731C75.9332 29.4731 77.3449 29.1149 78.2931 28.2721C79.1569 27.4925 79.7258 26.3126 79.7258 24.6901V14.9557H76.4389V16.1146H76.3967C75.7646 15.2085 74.7954 14.6396 73.3626 14.6396C70.6867 14.6396 68.8325 16.8731 68.8325 20.0336C68.8325 23.3417 71.087 25.1537 73.5101 25.1537C74.8165 25.1537 75.6382 24.6269 76.2703 23.9106H76.3546V24.9851C76.3546 26.2915 75.7436 27.05 74.2897 27.05C73.1519 27.05 72.583 26.5654 72.3934 25.9965H69.0643C69.4014 28.251 71.3609 29.4731 74.3319 29.4731ZM74.3108 22.6042C73.0255 22.6042 72.1827 21.5507 72.1827 19.9283C72.1827 18.2848 73.0255 17.2313 74.3108 17.2313C75.7436 17.2313 76.5021 18.4534 76.5021 19.9072C76.5021 21.4243 75.8068 22.6042 74.3108 22.6042Z" fill="black"/>
<path d="M86.4845 23.6366C84.9885 23.6366 84.2089 22.3302 84.2089 20.3707C84.2089 18.4111 84.9885 17.0837 86.4845 17.0837C87.9805 17.0837 88.7808 18.4111 88.7808 20.3707C88.7808 22.3302 87.9805 23.6366 86.4845 23.6366ZM86.5055 26.0807C89.9818 26.0807 92.2574 23.6155 92.2574 20.3707C92.2574 17.1259 89.9818 14.6606 86.5055 14.6606C83.05 14.6606 80.7323 17.1259 80.7323 20.3707C80.7323 23.6155 83.05 26.0807 86.5055 26.0807Z" fill="black"/>
<path d="M93.2609 25.7437H96.6953V14.9557H93.2609V25.7437ZM93.2609 13.4597H96.6953V10.6785H93.2609V13.4597Z" fill="black"/>
<path d="M98.1852 29.3045H101.62V24.6269H101.662C102.336 25.533 103.326 26.0808 104.717 26.0808C107.54 26.0808 109.416 23.8473 109.416 20.3497C109.416 17.1049 107.667 14.6396 104.801 14.6396C103.326 14.6396 102.273 15.2928 101.535 16.2621H101.472V14.9557H98.1852V29.3045ZM103.832 23.4259C102.357 23.4259 101.514 22.2249 101.514 20.4761C101.514 18.7273 102.273 17.3998 103.769 17.3998C105.244 17.3998 105.939 18.6219 105.939 20.4761C105.939 22.3092 105.138 23.4259 103.832 23.4259Z" fill="black"/>
<path d="M115.007 26.0808C117.831 26.0808 119.916 24.8587 119.916 22.4988C119.916 19.7386 117.683 19.254 115.787 18.938C114.417 18.6851 113.195 18.5798 113.195 17.8213C113.195 17.147 113.848 16.831 114.691 16.831C115.639 16.831 116.292 17.1259 116.419 18.0952H119.579C119.411 15.9671 117.767 14.6396 114.712 14.6396C112.163 14.6396 110.056 15.8196 110.056 18.0952C110.056 20.6236 112.057 21.1293 113.933 21.4453C115.365 21.6982 116.672 21.8035 116.672 22.7728C116.672 23.4681 116.018 23.8473 114.986 23.8473C113.848 23.8473 113.132 23.3206 113.005 22.246H109.761C109.866 24.6269 111.847 26.0808 115.007 26.0808Z" fill="black"/>
<path d="M124.582 26.0596C126.078 26.0596 127.026 25.4696 127.806 24.4161H127.869V25.7435H131.156V14.9556H127.721V20.9817C127.721 22.2669 127.005 23.1519 125.825 23.1519C124.729 23.1519 124.203 22.4987 124.203 21.3188V14.9556H120.789V22.0352C120.789 24.4372 122.096 26.0596 124.582 26.0596Z" fill="black"/>
<path d="M132.65 25.7437H136.084V19.6965C136.084 18.4112 136.716 17.5052 137.791 17.5052C138.823 17.5052 139.308 18.1794 139.308 19.3383V25.7437H142.743V19.6965C142.743 18.4112 143.354 17.5052 144.449 17.5052C145.482 17.5052 145.966 18.1794 145.966 19.3383V25.7437H149.401V18.7273C149.401 16.3042 148.179 14.6396 145.735 14.6396C144.344 14.6396 143.185 15.2296 142.342 16.536H142.3C141.752 15.3771 140.678 14.6396 139.266 14.6396C137.707 14.6396 136.674 15.3771 136 16.4938H135.937V14.9557H132.65V25.7437Z" fill="black"/>
<path fill-rule="evenodd" clip-rule="evenodd" d="M18.461 35.401C28.1584 35.401 36.0195 27.5397 36.0195 17.8424C36.0195 8.14515 28.1584 0.283936 18.461 0.283936C8.76367 0.283936 0.902466 8.14515 0.902466 17.8424C0.902466 27.5397 8.76367 35.401 18.461 35.401ZM21.1711 13.8501C22.6678 12.3534 22.6678 9.92669 21.1711 8.42991C19.6743 6.93316 17.2477 6.93316 15.7509 8.42991C14.2542 9.92669 14.2542 12.3534 15.7509 13.8501L18.461 16.5602L21.1711 13.8501ZM22.4533 20.5526C23.9501 22.0494 26.3768 22.0494 27.8736 20.5526C29.3702 19.0558 29.3702 16.6291 27.8736 15.1324C26.3768 13.6357 23.9501 13.6357 22.4533 15.1324L19.7433 17.8425L22.4533 20.5526ZM21.1711 27.255C22.6678 25.7582 22.6678 23.3316 21.1711 21.8348L18.461 19.1247L15.7509 21.8348C14.2542 23.3316 14.2542 25.7582 15.7509 27.255C17.2477 28.7518 19.6743 28.7518 21.1711 27.255ZM9.04842 20.5526C7.5517 19.0558 7.5517 16.6291 9.04842 15.1324C10.5452 13.6357 12.9719 13.6357 14.4687 15.1324L17.1787 17.8425L14.4687 20.5526C12.9719 22.0494 10.5452 22.0494 9.04842 20.5526Z" fill="#3293FE"/>
</g>
<defs>
<clipPath id="clip0_559_1864">
<rect width="149.247" height="35.995" fill="white" transform="translate(0.813477)"/>
</clipPath>
</defs>
</svg>
