<svg width="150" height="37" viewBox="0 0 150 37" fill="none" xmlns="http://www.w3.org/2000/svg">
<g clip-path="url(#clip0_559_1875)">
<path d="M45.3734 25.7701H55.8664V22.6095H49.1028V10.7048H45.3734V25.7701Z" fill="black"/>
<path d="M62.083 23.6629C60.5871 23.6629 59.8075 22.3566 59.8075 20.397C59.8075 18.4375 60.5871 17.1101 62.083 17.1101C63.579 17.1101 64.3797 18.4375 64.3797 20.397C64.3797 22.3566 63.579 23.6629 62.083 23.6629ZM62.1041 26.1071C65.5807 26.1071 67.8563 23.6419 67.8563 20.397C67.8563 17.1522 65.5807 14.687 62.1041 14.687C58.6486 14.687 56.3309 17.1522 56.3309 20.397C56.3309 23.6419 58.6486 26.1071 62.1041 26.1071Z" fill="black"/>
<path d="M73.874 29.4995C75.4754 29.4995 76.8871 29.1413 77.8352 28.2985C78.6991 27.5189 79.268 26.3389 79.268 24.7165V14.9821H75.9811V16.1409H75.9389C75.3068 15.2349 74.3376 14.666 72.9048 14.666C70.2289 14.666 68.3747 16.8995 68.3747 20.06C68.3747 23.368 70.6292 25.1801 73.0523 25.1801C74.3586 25.1801 75.1804 24.6533 75.8125 23.9369H75.8968V25.0115C75.8968 26.3179 75.2857 27.0764 73.8319 27.0764C72.6941 27.0764 72.1252 26.5918 71.9356 26.0229H68.6065C68.9436 28.2774 70.9031 29.4995 73.874 29.4995ZM73.853 22.6306C72.5677 22.6306 71.7249 21.5771 71.7249 19.9546C71.7249 18.3112 72.5677 17.2577 73.853 17.2577C75.2857 17.2577 76.0443 18.4797 76.0443 19.9336C76.0443 21.4506 75.3489 22.6306 73.853 22.6306Z" fill="black"/>
<path d="M86.0266 23.6629C84.5306 23.6629 83.751 22.3566 83.751 20.397C83.751 18.4375 84.5306 17.1101 86.0266 17.1101C87.5226 17.1101 88.3232 18.4375 88.3232 20.397C88.3232 22.3566 87.5226 23.6629 86.0266 23.6629ZM86.0477 26.1071C89.5243 26.1071 91.7998 23.6419 91.7998 20.397C91.7998 17.1522 89.5243 14.687 86.0477 14.687C82.5921 14.687 80.2744 17.1522 80.2744 20.397C80.2744 23.6419 82.5921 26.1071 86.0477 26.1071Z" fill="black"/>
<path d="M92.8024 25.7701H96.2369V14.9821H92.8024V25.7701ZM92.8024 13.4861H96.2369V10.7048H92.8024V13.4861Z" fill="black"/>
<path d="M97.7276 29.3309H101.162V24.6533H101.204C101.878 25.5593 102.869 26.1072 104.259 26.1072C107.083 26.1072 108.958 23.8737 108.958 20.376C108.958 17.1312 107.209 14.666 104.344 14.666C102.869 14.666 101.815 15.3192 101.078 16.2884H101.015V14.9821H97.7276V29.3309ZM103.374 23.4523C101.9 23.4523 101.057 22.2513 101.057 20.5025C101.057 18.7536 101.815 17.4262 103.311 17.4262C104.786 17.4262 105.481 18.6483 105.481 20.5025C105.481 22.3356 104.681 23.4523 103.374 23.4523Z" fill="black"/>
<path d="M114.55 26.1072C117.373 26.1072 119.459 24.8851 119.459 22.5252C119.459 19.765 117.225 19.2804 115.329 18.9643C113.96 18.7115 112.737 18.6061 112.737 17.8476C112.737 17.1734 113.391 16.8573 114.233 16.8573C115.182 16.8573 115.835 17.1523 115.961 18.1215H119.122C118.953 15.9934 117.31 14.666 114.255 14.666C111.705 14.666 109.598 15.8459 109.598 18.1215C109.598 20.65 111.6 21.1556 113.475 21.4717C114.908 21.7245 116.214 21.8299 116.214 22.7991C116.214 23.4944 115.561 23.8737 114.528 23.8737C113.391 23.8737 112.674 23.347 112.548 22.2724H109.303C109.408 24.6533 111.389 26.1072 114.55 26.1072Z" fill="black"/>
<path d="M124.124 26.0859C125.62 26.0859 126.568 25.496 127.348 24.4425H127.411V25.7699H130.698V14.9819H127.264V21.008C127.264 22.2933 126.547 23.1783 125.367 23.1783C124.272 23.1783 123.745 22.5251 123.745 21.3451V14.9819H120.332V22.0615C120.332 24.4635 121.638 26.0859 124.124 26.0859Z" fill="black"/>
<path d="M132.191 25.77H135.626V19.7229C135.626 18.4376 136.258 17.5316 137.333 17.5316C138.365 17.5316 138.85 18.2058 138.85 19.3647V25.77H142.284V19.7229C142.284 18.4376 142.895 17.5316 143.991 17.5316C145.023 17.5316 145.508 18.2058 145.508 19.3647V25.77H148.942V18.7536C148.942 16.3306 147.72 14.666 145.276 14.666C143.885 14.666 142.727 15.256 141.884 16.5623H141.842C141.294 15.4035 140.219 14.666 138.808 14.666C137.248 14.666 136.216 15.4035 135.542 16.5202H135.478V14.9821H132.191V25.77Z" fill="black"/>
<path fill-rule="evenodd" clip-rule="evenodd" d="M18.8812 0.844482C28.7682 0.844482 36.7832 8.85949 36.7832 18.7465C36.7832 28.6336 28.7682 36.6487 18.8812 36.6487C8.99409 36.6487 0.979065 28.6336 0.979065 18.7465C0.979065 8.85949 8.99409 0.844482 18.8812 0.844482ZM36.0961 18.7465C36.0961 9.23901 28.3887 1.53157 18.8812 1.53157C18.1142 1.53157 17.3591 1.58171 16.6187 1.67891C17.0971 1.63708 17.5811 1.61573 18.0703 1.61573C27.1553 1.61573 34.5201 8.98055 34.5201 18.0655C34.5201 27.1504 27.1553 34.5152 18.0703 34.5152C9.46933 34.5152 2.41008 27.9142 1.68243 19.5018C2.07771 28.6589 9.6266 35.9615 18.8812 35.9615C28.3887 35.9615 36.0961 28.2541 36.0961 18.7465ZM33.833 18.0655C33.833 9.35999 26.7758 2.30282 18.0703 2.30282C17.3635 2.30282 16.6675 2.34935 15.9852 2.43951C16.4053 2.40416 16.8303 2.38613 17.2596 2.38613C25.5424 2.38613 32.257 9.10074 32.257 17.3835C32.257 25.6664 25.5424 32.381 17.2596 32.381C9.42791 32.381 2.99832 26.378 2.32111 18.7223C2.66542 27.1232 9.5849 33.8282 18.0703 33.8282C26.7758 33.8282 33.833 26.7709 33.833 18.0655ZM17.2596 3.07322C25.1629 3.07322 31.5699 9.48018 31.5699 17.3835C31.5699 25.2869 25.1629 31.6938 17.2596 31.6938C9.53933 31.6938 3.2469 25.5803 2.95951 17.9303C3.57999 24.8352 9.38246 30.2467 16.4489 30.2467C23.9291 30.2467 29.9931 24.1827 29.9931 16.7024C29.9931 9.22216 23.9291 3.15824 16.4489 3.15824C16.0619 3.15824 15.6787 3.17447 15.2999 3.20628C15.9406 3.11855 16.5948 3.07322 17.2596 3.07322ZM29.3059 16.7024C29.3059 9.60169 23.5496 3.84533 16.4489 3.84533C15.8489 3.84533 15.2585 3.88642 14.6805 3.96594C14.9961 3.94124 15.3151 3.92866 15.6371 3.92866C22.3154 3.92866 27.7291 9.34235 27.7291 16.0206C27.7291 22.6987 22.3154 28.1124 15.6371 28.1124C9.35152 28.1124 4.18605 23.3164 3.60056 17.1842C3.85386 24.0617 9.50931 29.5596 16.4489 29.5596C23.5496 29.5596 29.3059 23.8033 29.3059 16.7024ZM15.6371 4.61574C21.9358 4.61574 27.0419 9.72187 27.0419 16.0206C27.0419 22.3192 21.9358 27.4253 15.6371 27.4253C9.46255 27.4253 4.43402 22.5184 4.23829 16.3914C4.76692 21.7733 9.30561 25.9782 14.8264 25.9782C20.7025 25.9782 25.466 21.2146 25.466 15.3386C25.466 9.46253 20.7025 4.69905 14.8264 4.69905C14.5569 4.69905 14.2898 4.70906 14.0254 4.72875C14.5519 4.65426 15.09 4.61574 15.6371 4.61574ZM24.7789 15.3386C24.7789 9.84197 20.323 5.38614 14.8264 5.38614C14.3246 5.38614 13.8316 5.42326 13.3498 5.49492C13.5697 5.47917 13.7917 5.47116 14.0157 5.47116C19.0892 5.47116 23.2021 9.58404 23.2021 14.6575C23.2021 19.731 19.0892 23.8438 14.0157 23.8438C9.26153 23.8438 5.3509 20.2325 4.8774 15.6034C5.01777 20.9776 9.41836 25.2911 14.8264 25.2911C20.323 25.2911 24.7789 20.8352 24.7789 15.3386ZM14.0157 6.15825C18.7097 6.15825 22.5149 9.96348 22.5149 14.6575C22.5149 19.3516 18.7097 23.1568 14.0157 23.1568C9.38138 23.1568 5.61339 19.4478 5.51823 14.8363C5.94633 18.7026 9.22447 21.7096 13.2049 21.7096C17.4763 21.7096 20.9389 18.247 20.9389 13.9756C20.9389 9.70423 17.4763 6.24155 13.2049 6.24155C13.0416 6.24155 12.8794 6.24662 12.7186 6.2566C13.1415 6.19184 13.5746 6.15825 14.0157 6.15825ZM20.2519 13.9756C20.2519 10.0837 17.0969 6.92865 13.2049 6.92865C12.8141 6.92865 12.4307 6.96046 12.0571 7.02164C12.1685 7.01578 12.2805 7.01281 12.3933 7.01281C15.8625 7.01281 18.6749 9.82521 18.6749 13.2945C18.6749 16.7638 15.8625 19.5762 12.3933 19.5762C9.18538 19.5762 6.53911 17.1716 6.15854 14.0666C6.20727 17.9166 9.34338 21.0225 13.2049 21.0225C17.0969 21.0225 20.2519 17.8675 20.2519 13.9756ZM12.3933 7.6999C15.4831 7.6999 17.9879 10.2046 17.9879 13.2945C17.9879 16.3844 15.4831 18.8891 12.3933 18.8891C9.30344 18.8891 6.79865 16.3844 6.79865 13.2945C6.79865 13.2871 6.79867 13.2797 6.79869 13.2723C7.12038 15.6269 9.13958 17.4411 11.5825 17.4411C14.2492 17.4411 16.411 15.2793 16.411 12.6126C16.411 9.94583 14.2492 7.78408 11.5825 7.78408C11.5222 7.78408 11.4622 7.78518 11.4024 7.78737C11.724 7.72989 12.0551 7.6999 12.3933 7.6999ZM15.7239 12.6126C15.7239 10.3254 13.8698 8.47116 11.5825 8.47116C9.29527 8.47116 7.44109 10.3254 7.44109 12.6126C7.44109 14.8998 9.29527 16.754 11.5825 16.754C13.8698 16.754 15.7239 14.8998 15.7239 12.6126Z" fill="#FEC554"/>
</g>
<defs>
<clipPath id="clip0_559_1875">
<rect width="148.37" height="36.8729" fill="white" transform="translate(0.721985)"/>
</clipPath>
</defs>
</svg>
