<svg width="133" height="35" viewBox="0 0 133 35" fill="none" xmlns="http://www.w3.org/2000/svg">
<path d="M38.6626 11.2601H41.8726V24.2601H38.6626V11.2601ZM43.1526 19.3701C43.1526 16.1501 45.1526 14.2201 48.1526 14.2201C51.1526 14.2201 53.1526 16.1501 53.1526 19.3701C53.1526 22.5901 51.2226 24.5401 48.1526 24.5401C45.0826 24.5401 43.1526 22.6601 43.1526 19.3701ZM49.9726 19.3701C49.9726 17.6001 49.2826 16.5601 48.1826 16.5601C47.0826 16.5601 46.4026 17.5601 46.4026 19.3701C46.4026 21.1801 47.0826 22.1701 48.1826 22.1701C49.2826 22.1701 49.9926 21.1801 49.9926 19.3801L49.9726 19.3701ZM54.4326 24.9301H57.5326C57.6737 25.2638 57.9202 25.5423 58.2344 25.7228C58.5486 25.9034 58.9132 25.9762 59.2726 25.9301C60.5026 25.9301 61.1426 25.2701 61.1426 24.2901V22.4901H61.1526C60.8877 23.0506 60.4593 23.5177 59.9239 23.8301C59.3884 24.1425 58.7709 24.2854 58.1526 24.2401C55.8026 24.2401 54.2426 22.4501 54.2426 19.3701C54.2426 16.2901 55.7326 14.3701 58.2426 14.3701C58.8767 14.3362 59.5058 14.4997 60.043 14.8382C60.5803 15.1767 60.9994 15.6735 61.2426 16.2601H61.1526V14.4501H64.3326V24.1901C64.3326 26.5401 62.2526 28.0101 59.1926 28.0101C56.4126 28.0001 54.6326 26.7301 54.4526 24.9401L54.4326 24.9301ZM61.1526 19.3701C61.1526 17.8001 60.4326 16.8101 59.2926 16.8101C58.1526 16.8101 57.4526 17.8101 57.4526 19.3701C57.4526 20.9301 58.1426 21.8501 59.2926 21.8501C60.4426 21.8501 61.1526 21.0001 61.1526 19.3701ZM65.6026 19.3701C65.6026 16.1501 67.6026 14.2201 70.6026 14.2201C73.6026 14.2201 75.6026 16.1501 75.6026 19.3701C75.6026 22.5901 73.6626 24.5401 70.6026 24.5401C67.5426 24.5401 65.6226 22.6601 65.6226 19.3701H65.6026ZM72.4226 19.3701C72.4226 17.6001 71.7226 16.5601 70.6326 16.5601C69.5426 16.5601 68.8526 17.5601 68.8526 19.3701C68.8526 21.1801 69.5326 22.1701 70.6326 22.1701C71.7326 22.1701 72.4426 21.1801 72.4426 19.3801L72.4226 19.3701ZM76.9026 12.0801C76.8886 11.7531 76.9728 11.4294 77.1443 11.1507C77.3158 10.8719 77.5668 10.6509 77.865 10.516C78.1632 10.381 78.4949 10.3384 78.8175 10.3936C79.1401 10.4487 79.4388 10.5991 79.6752 10.8254C79.9116 11.0518 80.0749 11.3436 80.1441 11.6635C80.2132 11.9834 80.1851 12.3167 80.0633 12.6204C79.9415 12.9242 79.7316 13.1846 79.4606 13.3681C79.1896 13.5516 78.8699 13.6498 78.5426 13.6501C78.3335 13.6554 78.1253 13.6191 77.9303 13.5434C77.7353 13.4676 77.5572 13.3538 77.4065 13.2087C77.2558 13.0636 77.1354 12.89 77.0524 12.6979C76.9693 12.5059 76.9252 12.2993 76.9226 12.0901L76.9026 12.0801ZM76.9026 14.4401H80.1526V24.3001H76.9526L76.9026 14.4401ZM91.8426 19.3701C91.8426 22.5801 90.4026 24.4401 87.9526 24.4401C87.3254 24.4788 86.7014 24.324 86.1649 23.9968C85.6284 23.6695 85.2053 23.1855 84.9526 22.6101H84.8926V27.4701H81.6826V14.4701H84.8726V16.2301H84.9326C85.1766 15.6434 85.5956 15.1461 86.1324 14.8061C86.6693 14.4661 87.2979 14.2999 87.9326 14.3301C90.4526 14.3101 91.9026 16.1601 91.9026 19.3801L91.8426 19.3701ZM88.5726 19.3701C88.5726 17.8101 87.8426 16.8001 86.7126 16.8001C85.5826 16.8001 84.8726 17.8001 84.8626 19.3701C84.8526 20.9401 85.5826 21.9301 86.7126 21.9301C87.8426 21.9301 88.6326 21.0001 88.6326 19.3801L88.5726 19.3701ZM97.3226 14.2101C100.013 14.2101 101.683 15.4801 101.703 17.5201H98.7726C98.7726 16.8101 98.1826 16.3701 97.3026 16.3701C96.4226 16.3701 96.0026 16.7101 96.0026 17.2201C96.0026 17.7301 96.3726 17.8901 97.1126 18.0401L99.1726 18.4601C101.173 18.8801 101.973 19.6801 101.973 21.1701C101.973 23.1701 100.123 24.5301 97.3726 24.5301C94.6226 24.5301 92.8326 23.2101 92.7026 21.2001H95.8126C95.9026 21.9301 96.4826 22.3601 97.4226 22.3601C98.3626 22.3601 98.8026 22.0601 98.8026 21.5301C98.8026 21.0001 98.5026 20.9101 97.7326 20.7501L95.8726 20.3601C93.9426 19.9501 92.9326 18.9401 92.9326 17.4301C92.9926 15.4701 94.6726 14.2201 97.3826 14.2201L97.3226 14.2101ZM112.723 24.2901H109.613V22.4401H109.553C109.379 23.0572 109 23.5965 108.478 23.9691C107.956 24.3418 107.323 24.5255 106.683 24.4901C106.2 24.5058 105.718 24.4192 105.271 24.2358C104.824 24.0525 104.42 23.7766 104.087 23.4263C103.753 23.0759 103.498 22.659 103.337 22.203C103.176 21.747 103.113 21.262 103.153 20.7801V14.4501H106.363V20.0901C106.363 21.2501 106.973 21.8801 107.973 21.8801C108.208 21.8783 108.439 21.8262 108.652 21.7274C108.865 21.6285 109.054 21.4851 109.206 21.3069C109.359 21.1287 109.472 20.9198 109.537 20.6944C109.601 20.4689 109.617 20.2322 109.583 20.0001V14.4501H112.783L112.723 24.2901ZM114.273 14.4401H117.393V16.3401H117.463C117.635 15.7314 118.005 15.1971 118.513 14.8207C119.022 14.4444 119.641 14.2472 120.273 14.2601C120.908 14.2049 121.541 14.3885 122.047 14.775C122.554 15.1615 122.898 15.7232 123.013 16.3501H123.153C123.353 15.7198 123.755 15.1732 124.298 14.7953C124.84 14.4173 125.493 14.2292 126.153 14.2601C126.592 14.2434 127.03 14.3196 127.437 14.4837C127.845 14.6477 128.213 14.896 128.518 15.2123C128.823 15.5285 129.057 15.9056 129.206 16.3188C129.356 16.732 129.416 17.172 129.383 17.6101V24.3001H126.153V18.4301C126.153 17.4301 125.683 16.8701 124.773 16.8701C124.571 16.8668 124.371 16.9072 124.186 16.9884C124.001 17.0697 123.837 17.19 123.703 17.341C123.569 17.4921 123.469 17.6702 123.41 17.8634C123.352 18.0566 123.336 18.2601 123.363 18.4601V24.3001H120.303V18.4001C120.303 17.4001 119.813 16.8701 118.933 16.8701C118.729 16.8685 118.527 16.9105 118.341 16.9933C118.154 17.0762 117.988 17.1979 117.852 17.3504C117.717 17.5029 117.616 17.6826 117.556 17.8774C117.495 18.0723 117.477 18.2778 117.503 18.4801V24.3001H114.293L114.273 14.4401Z" fill="#394149"/>
<path d="M32.3126 12.11C32.3127 10.1197 31.7117 8.17573 30.5883 6.53279C29.4649 4.88985 27.8714 3.6245 26.0167 2.9025C24.162 2.18049 22.1324 2.03549 20.1939 2.48648C18.2553 2.93747 16.4982 3.96343 15.1526 5.42997H2.67261V31.77H29.0226V19.46C30.0568 18.535 30.8844 17.4023 31.4513 16.1358C32.0182 14.8693 32.3117 13.4976 32.3126 12.11ZM27.2426 12.11C27.2446 13.0637 26.9636 13.9966 26.4352 14.7906C25.9067 15.5845 25.1547 16.2039 24.2741 16.5702C23.3935 16.9366 22.4241 17.0335 21.4884 16.8486C20.5528 16.6638 19.693 16.2055 19.0179 15.5318C18.3428 14.8581 17.8828 13.9993 17.696 13.064C17.5092 12.1288 17.6041 11.1591 17.9686 10.2778C18.3331 9.39643 18.9509 8.64306 19.7437 8.11299C20.5366 7.58292 21.4689 7.29998 22.4226 7.29997C23.6992 7.29997 24.9237 7.80642 25.8273 8.70818C26.731 9.60994 27.24 10.8334 27.2426 12.11ZM23.9526 26.7H7.74261V10.5H12.6826C12.5872 11.0315 12.537 11.5701 12.5326 12.11C12.5353 14.7322 13.5781 17.2462 15.4323 19.1004C17.2864 20.9545 19.8004 21.9974 22.4226 22C22.9353 21.9973 23.4469 21.9538 23.9526 21.87V26.7Z" fill="#00DAA3"/>
</svg>
