<svg width="64" height="64" viewBox="0 0 64 64" fill="none" xmlns="http://www.w3.org/2000/svg">
<path d="M31.5 40H25.5C25.2348 40 24.9804 39.8946 24.7929 39.7071C24.6054 39.5196 24.5 39.2652 24.5 39V25C24.5 24.7348 24.6054 24.4804 24.7929 24.2929C24.9804 24.1054 25.2348 24 25.5 24H30.5V27C30.5 27.7956 30.8161 28.5587 31.3787 29.1213C31.9413 29.6839 32.7044 30 33.5 30H36.5V35C36.5 35.2652 36.6054 35.5196 36.7929 35.7071C36.9804 35.8946 37.2348 36 37.5 36C37.7652 36 38.0196 35.8946 38.2071 35.7071C38.3946 35.5196 38.5 35.2652 38.5 35V29C38.5 29 38.5 29 38.5 28.94C38.4896 28.8481 38.4695 28.7576 38.44 28.67V28.58C38.3919 28.4772 38.3278 28.3827 38.25 28.3V28.3L32.25 22.3C32.1673 22.2222 32.0728 22.1581 31.97 22.11C31.9369 22.1042 31.9031 22.1042 31.87 22.11C31.7728 22.058 31.6683 22.0209 31.56 22H25.5C24.7044 22 23.9413 22.3161 23.3787 22.8787C22.8161 23.4413 22.5 24.2044 22.5 25V39C22.5 39.7956 22.8161 40.5587 23.3787 41.1213C23.9413 41.6839 24.7044 42 25.5 42H31.5C31.7652 42 32.0196 41.8946 32.2071 41.7071C32.3946 41.5196 32.5 41.2652 32.5 41C32.5 40.7348 32.3946 40.4804 32.2071 40.2929C32.0196 40.1054 31.7652 40 31.5 40ZM32.5 25.41L35.09 28H33.5C33.2348 28 32.9804 27.8946 32.7929 27.7071C32.6054 27.5196 32.5 27.2652 32.5 27V25.41ZM27.5 34H33.5C33.7652 34 34.0196 33.8946 34.2071 33.7071C34.3946 33.5196 34.5 33.2652 34.5 33C34.5 32.7348 34.3946 32.4804 34.2071 32.2929C34.0196 32.1054 33.7652 32 33.5 32H27.5C27.2348 32 26.9804 32.1054 26.7929 32.2929C26.6054 32.4804 26.5 32.7348 26.5 33C26.5 33.2652 26.6054 33.5196 26.7929 33.7071C26.9804 33.8946 27.2348 34 27.5 34ZM31.5 36H27.5C27.2348 36 26.9804 36.1054 26.7929 36.2929C26.6054 36.4804 26.5 36.7348 26.5 37C26.5 37.2652 26.6054 37.5196 26.7929 37.7071C26.9804 37.8946 27.2348 38 27.5 38H31.5C31.7652 38 32.0196 37.8946 32.2071 37.7071C32.3946 37.5196 32.5 37.2652 32.5 37C32.5 36.7348 32.3946 36.4804 32.2071 36.2929C32.0196 36.1054 31.7652 36 31.5 36ZM27.5 30H28.5C28.7652 30 29.0196 29.8946 29.2071 29.7071C29.3946 29.5196 29.5 29.2652 29.5 29C29.5 28.7348 29.3946 28.4804 29.2071 28.2929C29.0196 28.1054 28.7652 28 28.5 28H27.5C27.2348 28 26.9804 28.1054 26.7929 28.2929C26.6054 28.4804 26.5 28.7348 26.5 29C26.5 29.2652 26.6054 29.5196 26.7929 29.7071C26.9804 29.8946 27.2348 30 27.5 30ZM41.21 36.29C41.117 36.1963 41.0064 36.1219 40.8846 36.0711C40.7627 36.0203 40.632 35.9942 40.5 35.9942C40.368 35.9942 40.2373 36.0203 40.1154 36.0711C39.9936 36.1219 39.883 36.1963 39.79 36.29L36.5 39.59L35.21 38.29C35.1168 38.1968 35.0061 38.1228 34.8842 38.0723C34.7624 38.0219 34.6319 37.9959 34.5 37.9959C34.3681 37.9959 34.2376 38.0219 34.1158 38.0723C33.9939 38.1228 33.8832 38.1968 33.79 38.29C33.6968 38.3832 33.6228 38.4939 33.5723 38.6158C33.5219 38.7376 33.4959 38.8681 33.4959 39C33.4959 39.1319 33.5219 39.2624 33.5723 39.3842C33.6228 39.5061 33.6968 39.6168 33.79 39.71L35.79 41.71C35.883 41.8037 35.9936 41.8781 36.1154 41.9289C36.2373 41.9797 36.368 42.0058 36.5 42.0058C36.632 42.0058 36.7627 41.9797 36.8846 41.9289C37.0064 41.8781 37.117 41.8037 37.21 41.71L41.21 37.71C41.3037 37.617 41.3781 37.5064 41.4289 37.3846C41.4797 37.2627 41.5058 37.132 41.5058 37C41.5058 36.868 41.4797 36.7373 41.4289 36.6154C41.3781 36.4936 41.3037 36.383 41.21 36.29V36.29Z" fill="#FF5E87"/>
<rect x="0.5" y="0.5" width="63" height="63" rx="31.5" stroke="#FF5E87" stroke-linecap="round" stroke-linejoin="bevel" stroke-dasharray="12 13"/>
</svg>
