<svg width="173" height="173" viewBox="0 0 173 173" fill="none" xmlns="http://www.w3.org/2000/svg">
<g clip-path="url(#clip0_547_1760)">
<path fill-rule="evenodd" clip-rule="evenodd" d="M82.4879 96.6758C82.7899 96.2296 83.0192 95.7121 83.2477 95.1952C84.6107 92.5347 86.236 89.4675 86.6707 86.4379C87.212 82.4367 86.1439 79.6127 84.1782 77.6859C81.4096 74.9764 76.5782 74.186 72.0796 75.2246C67.6063 76.2381 63.4498 78.9524 61.7638 82.8008C60.5881 85.4181 60.5557 88.6221 62.4125 92.2435C64.4942 96.3608 68.2821 98.4836 72.6711 99.2844C74.3535 99.6203 76.0286 99.675 77.7859 99.6476C76.8279 101.038 75.8587 102.44 74.8727 103.859C71.5129 108.372 67.5198 112.654 63.3354 116.405C57.8702 121.438 51.7674 125.378 44.898 128.211C44.3055 128.515 44.0087 129.244 44.2566 129.861C44.5053 130.478 45.223 130.769 45.8876 130.537C53.02 127.585 59.3926 123.52 65.0639 118.281C69.2915 114.342 73.476 110.012 76.8783 105.312C78.268 103.346 79.6269 101.411 80.8948 99.422C84.6892 98.9433 88.3604 97.8673 91.1716 96.6419C109.719 88.1861 121.341 63.4458 127.088 44.7241C127.3 44.0797 126.958 43.4118 126.299 43.2056C125.639 43.0002 124.964 43.3873 124.752 44.0317C119.182 62.1443 108.103 86.1982 90.1337 94.3643C88.0203 95.3244 85.3193 96.1511 82.4879 96.6758ZM79.3708 97.0532C79.998 96.1378 80.5484 95.1557 81.0241 94.1034C82.2192 91.6108 83.8094 88.8675 84.2427 86.1277C84.66 83.1154 83.9509 80.9401 82.4948 79.5129C80.1645 77.2301 76.2651 76.8051 72.656 77.6751C68.9503 78.4976 65.4081 80.5979 64.0609 83.8192C63.1671 85.8663 63.1796 88.3051 64.5859 91.0795C66.3425 94.5128 69.5368 96.2193 73.1055 96.8312C75.1533 97.2342 77.2826 97.2673 79.3708 97.0532Z" fill="#FF5E87"/>
<path fill-rule="evenodd" clip-rule="evenodd" d="M126.358 43.7265C126.464 44.3414 126.444 45.0824 126.423 45.8241C126.41 47.278 126.282 48.7039 126.449 49.6899C127.388 55.6713 128.588 62.8324 131.375 68.263C131.658 68.8447 132.416 69.0963 133.021 68.7791C133.626 68.4627 133.905 67.7514 133.549 67.0976C130.926 61.9366 129.848 55.0848 128.88 49.2772C128.746 48.258 128.89 46.5284 128.92 45.0565C128.909 43.7706 128.768 42.6136 128.304 41.7803C128.073 41.2901 127.28 40.7856 126.036 41.1647C124.309 41.7385 120.61 44.4281 120.228 44.6653C116.375 47.0771 112.898 49.1129 108.181 48.3517C107.536 48.276 106.914 48.754 106.738 49.3617C106.635 50.0414 107.126 50.7047 107.772 50.7797C113.126 51.6245 117.222 49.5462 121.586 46.7682C121.814 46.5404 124.011 44.9193 125.771 44.0248C125.986 43.9534 126.144 43.7957 126.358 43.7265Z" fill="#FF5E87"/>
</g>
<defs>
<clipPath id="clip0_547_1760">
<rect width="122.13" height="122.13" fill="white" transform="translate(86.618) rotate(45)"/>
</clipPath>
</defs>
</svg>
