<svg width="133" height="117" viewBox="0 0 133 117" fill="none" xmlns="http://www.w3.org/2000/svg">
<path fill-rule="evenodd" clip-rule="evenodd" d="M72.838 18.8945C81.5296 13.5922 90.7835 8.81778 97.4667 0.929337C97.8662 0.461049 98.5687 0.401635 99.0411 0.80051C99.5097 1.20162 99.5707 1.90519 99.1735 2.37736C92.3335 10.4493 82.8971 15.3808 74.0029 20.8052C73.4786 21.1286 72.7881 20.9589 72.4678 20.4308C72.1436 19.905 72.3137 19.2179 72.838 18.8945Z" fill="#00DAA3"/>
<path fill-rule="evenodd" clip-rule="evenodd" d="M79.4547 32.1844C83.6658 33.1331 87.761 33.3008 91.9292 32.1492C92.5244 31.9843 93.1389 32.3348 93.3064 32.9284C93.4701 33.5241 93.1203 34.1409 92.5289 34.3036C87.9967 35.5563 83.5496 35.3949 78.972 34.3649C78.3689 34.2305 77.9877 33.6327 78.1237 33.0293C78.256 32.4285 78.8554 32.0478 79.4547 32.1844Z" fill="#00DAA3"/>
<path fill-rule="evenodd" clip-rule="evenodd" d="M87.7896 64.2729C91.5494 67.8758 95.9861 69.8308 101.201 70.0817C101.816 70.1115 102.294 70.6355 102.264 71.2527C102.237 71.8677 101.714 72.3445 101.099 72.3146C95.3269 72.0357 90.4112 69.8757 86.2481 65.8867C85.8012 65.4607 85.7878 64.7503 86.2116 64.3062C86.639 63.8595 87.3466 63.8447 87.7896 64.2729Z" fill="#00DAA3"/>
<path fill-rule="evenodd" clip-rule="evenodd" d="M47.7662 95.2162C46.5057 94.7643 45.283 94.1993 44.1251 93.5147C43.6092 93.2101 42.6066 92.5088 42.0616 91.7255C41.4778 90.8929 41.3481 89.9809 41.8882 89.1494C42.606 88.0457 43.4487 87.631 44.2553 87.5823C45.0315 87.5345 45.8436 87.8525 46.598 88.472C48.0393 89.6564 49.2887 92.0168 49.7527 93.5076C51.0305 93.8735 52.341 94.1176 53.6653 94.2427C63.529 95.174 72.731 87.4179 76.3359 75.4293C77.5969 71.2325 75.7718 65.0014 73.0601 58.7071C68.8391 48.9062 62.306 39.0095 60.4869 36.0551C60.0394 35.3246 59.8548 34.8443 59.8427 34.734C59.7746 34.1967 60.0305 33.8992 60.23 33.7272C60.5211 33.4816 60.8158 33.3941 61.0871 33.3822C61.4551 33.3681 61.8382 33.4962 62.1798 33.8378C62.3666 34.0276 62.5614 34.3294 62.745 34.6652C62.8699 34.8994 62.9685 35.1773 63.11 35.3152C64.0203 36.1959 64.9782 37.0161 65.9327 37.8482C69.1323 40.6503 72.553 43.0322 76.1416 45.3121C87.5432 52.5571 99.1058 60.4918 112.544 63.2683C113.147 63.3931 113.539 63.9837 113.415 64.5889C113.294 65.1918 112.704 65.5807 112.098 65.4578C98.3915 62.6278 86.5768 54.587 74.9485 47.1991C71.8964 45.2594 68.9619 43.2467 66.1776 40.9766C69.2598 46.0562 73.3285 53.2017 76.0271 60.0444C78.4276 66.1298 79.6985 71.9989 78.4729 76.0787C74.5241 89.2119 64.2635 97.4902 53.461 96.468C52.3053 96.3582 51.1547 96.168 50.0269 95.8923C50.2086 105.462 43.3087 113.323 33.7232 114.23C33.1081 114.289 32.5636 113.837 32.5031 113.223C32.4464 112.607 32.8944 112.063 33.5095 112.004C42.1471 111.186 48.284 103.922 47.7662 95.2162ZM46.924 92.4635C46.3551 92.2009 45.7999 91.9087 45.2551 91.5898C44.9649 91.4174 44.4346 91.07 44.0533 90.6505C43.9652 90.5515 43.8598 90.3778 43.8128 90.2965C44.0034 90.0108 44.1754 89.8268 44.3948 89.8142C44.6682 89.7969 44.9196 89.9824 45.1839 90.1992C45.8481 90.7427 46.4651 91.6151 46.924 92.4635Z" fill="#00DAA3"/>
</svg>
