<svg width="48" height="47" viewBox="0 0 48 47" fill="none" xmlns="http://www.w3.org/2000/svg">
<path fill-rule="evenodd" clip-rule="evenodd" d="M39.4759 26.6356C37.0351 31.0652 35.8878 35.6533 34.4585 40.4267C34.1795 41.359 34.7104 42.3385 35.6423 42.6185C36.5748 42.8987 37.5581 42.3675 37.8376 41.4353C39.1928 36.909 40.2488 32.539 42.5663 28.3312C43.0353 27.4801 42.7233 26.4077 41.8697 25.9424C41.0181 25.4715 39.9444 25.7844 39.4759 26.6356Z" fill="#00DAA3"/>
<path fill-rule="evenodd" clip-rule="evenodd" d="M31.9988 14.7803C22.1234 19.887 12.1515 27.1882 4.4068 35.1832C3.73105 35.8817 3.75041 36.9971 4.45108 37.6702C5.15175 38.3432 6.26832 38.3269 6.94407 37.6284C14.4328 29.8984 24.0769 22.837 33.6249 17.9033C34.4885 17.4553 34.8249 16.3928 34.3758 15.5324C33.9268 14.672 32.8624 14.3322 31.9988 14.7803Z" fill="#00DAA3"/>
<path fill-rule="evenodd" clip-rule="evenodd" d="M32.1054 6.34011C25.1659 3.20068 17.1374 3.23333 9.76454 4.34556C8.80176 4.49403 8.14048 5.39057 8.28785 6.34608C8.43426 7.3074 9.33498 7.96736 10.2962 7.82455C17.0116 6.80912 24.3324 6.68386 30.6529 9.54219C31.5396 9.94356 32.585 9.55032 32.9849 8.66865C33.3854 7.78714 32.9914 6.74132 32.1054 6.34011Z" fill="#00DAA3"/>
</svg>
