<svg width="140" height="140" viewBox="0 0 140 140" fill="none" xmlns="http://www.w3.org/2000/svg">
<g clip-path="url(#clip0_560_2194)">
<path fill-rule="evenodd" clip-rule="evenodd" d="M60.3618 75.6796C60.8687 75.4971 61.3589 75.214 61.848 74.931C64.5169 73.5844 67.6373 72.0638 69.7735 69.872C72.5684 66.958 73.3693 64.0469 72.9163 61.3319C72.2757 57.5114 68.8378 54.0261 64.5909 52.2148C60.3794 50.398 55.4217 50.1421 51.792 52.2582C49.3 53.6803 47.386 56.25 46.7526 60.27C46.0087 64.8233 47.8185 68.7703 50.8929 72.0034C52.0544 73.266 53.3756 74.2971 54.8116 75.3104C53.2184 75.8694 51.609 76.4314 49.9765 76.9966C44.6028 78.6635 38.8536 79.7704 33.2621 80.3365C25.881 81.1828 18.6288 80.7701 11.4093 79.0116C10.7514 78.9083 10.0816 79.3229 9.91845 79.9675C9.75626 80.612 10.1647 81.2699 10.8385 81.4739C18.3406 83.2914 25.8845 83.7617 33.5536 82.8703C39.2905 82.1783 45.2226 81.1454 50.7406 79.3527C53.0221 78.5827 55.2603 77.8197 57.4565 76.9598C60.8043 78.8087 64.4046 80.1024 67.398 80.7686C87.3662 84.8644 111.334 71.7221 127.008 59.9813C127.559 59.5855 127.676 58.8443 127.265 58.2895C126.853 57.735 126.079 57.6498 125.528 58.0456C110.356 69.3983 87.2318 82.3061 67.9015 78.3168C65.6281 77.8474 62.9587 76.9239 60.3618 75.6796ZM57.6208 74.148C58.6669 73.7778 59.6902 73.3087 60.6947 72.7386C63.129 71.4288 66.0302 70.1492 67.9945 68.1908C70.1065 66.0028 70.8152 63.8274 70.4797 61.8163C69.9418 58.5987 67.0416 55.9579 63.6128 54.5344C60.1341 53.0155 56.0345 52.6255 53.048 54.4345C51.1196 55.5619 49.6928 57.5398 49.1944 60.6101C48.5909 64.4191 50.1664 67.68 52.6893 70.2771C54.1065 71.8093 55.8075 73.0906 57.6208 74.148Z" fill="#FF5E87"/>
<path fill-rule="evenodd" clip-rule="evenodd" d="M127.006 58.7453C126.729 59.3045 126.276 59.8913 125.822 60.4783C124.956 61.6458 124.012 62.7224 123.566 63.6177C120.8 69.0035 117.551 75.4967 116.603 81.5265C116.489 82.1634 116.953 82.813 117.629 82.9135C118.304 83.0141 118.948 82.6039 119.046 81.8662C119.967 76.1503 123.133 69.9789 125.773 64.7161C126.265 63.8135 127.401 62.5013 128.293 61.3298C129.041 60.284 129.609 59.2662 129.725 58.3195C129.827 57.7875 129.484 56.9127 128.255 56.486C126.522 55.932 121.948 55.9254 121.5 55.8923C116.965 55.5706 112.957 55.1668 109.594 51.7725C109.117 51.3313 108.333 51.3511 107.833 51.7388C107.35 52.2273 107.355 53.0521 107.833 53.4932C111.661 57.3305 116.195 58.0648 121.358 58.3913C121.676 58.3415 124.407 58.3266 126.356 58.6405C126.572 58.7098 126.793 58.6755 127.006 58.7453Z" fill="#FF5E87"/>
</g>
<defs>
<clipPath id="clip0_560_2194">
<rect width="122.13" height="122.13" fill="white" transform="translate(120.66) rotate(81.1)"/>
</clipPath>
</defs>
</svg>
