<svg width="36" height="36" viewBox="0 0 36 36" fill="none" xmlns="http://www.w3.org/2000/svg">
<g clip-path="url(#clip0_573_1705)">
<path fill-rule="evenodd" clip-rule="evenodd" d="M13.3453 27.7644C13.2349 26.3953 12.9954 24.9216 12.4103 23.6778C11.7153 22.2006 10.5357 21.3595 9.24411 20.6609C7.58462 19.7636 5.74153 19.0888 4.10323 18.101C3.49469 17.7347 3.34322 17.303 3.27457 17.1168C3.10121 16.6461 3.13372 16.2261 3.26258 15.8572C3.41441 15.4199 3.74736 14.8524 4.60303 14.6498C4.72544 14.621 4.90851 14.59 5.14535 14.5996C5.31893 14.6069 5.83739 14.7204 6.05894 14.7382C6.60494 14.7805 7.14672 14.8387 7.69001 14.9027C9.49827 15.1155 11.0155 15.3657 12.8289 14.9933C15.2906 14.4882 16.9105 13.7551 17.8944 12.436C18.8459 11.1605 19.1963 9.42461 19.3348 7.12376C19.3401 6.90272 19.352 6.68577 19.3713 6.47307C19.4609 5.4663 20.3386 4.71609 21.3474 4.78392C22.3554 4.85157 23.1247 5.71278 23.0797 6.72229C23.0702 6.93299 23.0594 7.14024 23.0455 7.34436C22.9854 10.4876 24.6754 14.5979 26.4245 17.192C26.9639 17.9917 28.6899 19.4134 29.6994 20.6623C30.444 21.5839 30.8509 22.5043 30.8961 23.1977C30.927 23.6625 30.8086 24.0157 30.6558 24.2927C30.434 24.6951 30.1047 24.9903 29.6599 25.1651C29.4166 25.2601 29.1072 25.3258 28.7419 25.2987C28.5661 25.2855 28.1399 25.1751 27.9476 25.1228C27.2578 25.1374 26.5719 25.1976 25.8817 25.1905C24.235 25.1735 23.0516 25.6885 21.516 26.2655C20.0789 26.805 19.0729 27.5285 18.1042 28.7247C18.0137 28.8898 17.2826 30.222 16.9473 30.6718C16.4565 31.3286 15.8705 31.5473 15.5714 31.6034C15.0639 31.6991 14.6651 31.6161 14.3491 31.4852C13.8828 31.2918 13.5272 30.964 13.2964 30.4895C13.1527 30.1955 13.0463 29.7851 13.0757 29.2818C13.0976 28.8928 13.315 27.9033 13.3453 27.7644ZM13.0754 18.7275C13.2404 18.7009 13.4072 18.6702 13.5766 18.6355C17.1821 17.8957 19.4338 16.5914 20.8746 14.6588L20.9221 14.5937C21.6088 16.3289 22.4587 17.9608 23.3418 19.2706C23.7053 19.8099 24.5438 20.6196 25.3957 21.4798C23.5103 21.549 22.0445 22.0954 20.2086 22.7843C18.8072 23.3111 17.686 23.956 16.6745 24.8466C16.4682 23.8899 16.1775 22.9521 15.7743 22.095C15.1028 20.668 14.1698 19.5935 13.0754 18.7275Z" fill="#3293FE"/>
</g>
<defs>
<clipPath id="clip0_573_1705">
<rect width="29" height="29" fill="white" transform="translate(0 28.0118) rotate(-75)"/>
</clipPath>
</defs>
</svg>
