<svg width="119" height="44" viewBox="0 0 119 44" fill="none" xmlns="http://www.w3.org/2000/svg">
<g clip-path="url(#clip0_563_2466)">
<path fill-rule="evenodd" clip-rule="evenodd" d="M50.6313 30.579C51.1159 30.3436 51.5732 30.01 52.0295 29.6766C54.5402 28.0541 57.4814 26.2104 59.3726 23.8041C61.842 20.6096 62.329 17.6298 61.5901 14.9784C60.5471 11.2476 56.7583 8.14734 52.343 6.79757C47.9622 5.43857 43.0055 5.71097 39.6212 8.20082C37.2944 9.87962 35.6643 12.6382 35.4616 16.7028C35.2058 21.3093 37.4248 25.0417 40.8254 27.9297C42.1144 29.0618 43.5377 29.9466 45.0733 30.8016C43.5485 31.5268 42.008 32.2566 40.4448 32.992C35.2786 35.2206 29.6796 36.9321 24.1799 38.0891C16.9305 39.715 9.67552 40.0753 2.31008 39.0939C1.64486 39.0611 1.02299 39.5445 0.929226 40.2029C0.836442 40.8609 1.31251 41.4717 2.00411 41.603C9.65687 42.613 17.2081 42.279 24.7391 40.5777C30.3699 39.28 36.1586 37.6225 41.4549 35.2536C43.6417 34.2455 45.7861 33.249 47.8785 32.1606C51.4039 33.6433 55.1212 34.5471 58.1685 34.8914C78.4588 36.8421 100.894 21.2274 115.232 7.88744C115.738 7.43533 115.775 6.68586 115.308 6.17792C114.839 5.67023 114.061 5.66775 113.555 6.11986C99.6747 19.0206 78.0534 34.3126 58.4085 32.4C56.0982 32.1748 53.3457 31.5402 50.6313 30.579ZM47.7431 29.3473C48.7439 28.868 49.7116 28.2928 50.6498 27.6192C52.9311 26.0582 55.6799 24.4775 57.425 22.3214C59.2926 19.9214 59.7661 17.683 59.2187 15.7189C58.342 12.5768 55.1776 10.259 51.617 9.20794C47.9965 8.06734 43.8787 8.11516 41.1013 10.2313C39.3037 11.5572 38.0952 13.6756 37.9258 16.7814C37.7305 20.633 39.6435 23.708 42.4282 26.0224C44.0002 27.3952 45.8276 28.4886 47.7431 29.3473Z" fill="#FF5E87"/>
<path fill-rule="evenodd" clip-rule="evenodd" d="M115.098 6.6586C114.883 7.24406 114.495 7.87569 114.106 8.50759C113.368 9.76056 112.544 10.9314 112.196 11.8689C110.018 17.5182 107.477 24.3199 107.175 30.4163C107.129 31.0617 107.66 31.6584 108.343 31.6864C109.025 31.7148 109.622 31.2383 109.641 30.4944C109.949 24.713 112.442 18.2401 114.507 12.7266C114.901 11.7769 115.891 10.3513 116.653 9.09177C117.286 7.97235 117.742 6.89997 117.757 5.94624C117.802 5.40642 117.368 4.573 116.101 4.27929C114.318 3.91265 109.769 4.39214 109.321 4.40686C104.778 4.56885 100.748 4.5933 97.044 1.57559C96.5232 1.18748 95.7455 1.29052 95.29 1.72918C94.8609 2.2663 94.9538 3.08588 95.4757 3.47372C99.6902 6.88244 104.277 7.13074 109.445 6.90682C109.756 6.82344 112.47 6.5184 114.441 6.62347C114.663 6.66943 114.879 6.61185 115.098 6.6586Z" fill="#FF5E87"/>
</g>
<defs>
<clipPath id="clip0_563_2466">
<rect width="119" height="44" fill="white"/>
</clipPath>
</defs>
</svg>
