<svg width="48" height="47" viewBox="0 0 48 47" fill="none" xmlns="http://www.w3.org/2000/svg">
<path fill-rule="evenodd" clip-rule="evenodd" d="M8.02979 26.6356C10.4707 31.0652 11.618 35.6533 13.0473 40.4267C13.3263 41.359 12.7953 42.3385 11.8634 42.6185C10.9309 42.8987 9.94769 42.3675 9.66811 41.4353C8.3129 36.909 7.25698 32.539 4.93939 28.3312C4.47042 27.4801 4.78239 26.4077 5.63607 25.9424C6.48766 25.4715 7.56139 25.7844 8.02979 26.6356Z" fill="#3293FE"/>
<path fill-rule="evenodd" clip-rule="evenodd" d="M15.5074 14.7803C25.3829 19.887 35.3548 27.1882 43.0995 35.1832C43.7752 35.8817 43.7559 36.9971 43.0552 37.6702C42.3545 38.3432 41.238 38.3269 40.5622 37.6284C33.0735 29.8984 23.4293 22.837 13.8814 17.9033C13.0178 17.4553 12.6814 16.3928 13.1305 15.5324C13.5795 14.672 14.6439 14.3322 15.5074 14.7803Z" fill="#3293FE"/>
<path fill-rule="evenodd" clip-rule="evenodd" d="M15.4007 6.3401C22.3401 3.20067 30.3686 3.23331 37.7415 4.34555C38.7043 4.49402 39.3656 5.39055 39.2182 6.34606C39.0718 7.30739 38.1711 7.96734 37.2098 7.82453C30.4944 6.80911 23.1736 6.68384 16.8531 9.54217C15.9665 9.94354 14.9211 9.5503 14.5212 8.66864C14.1207 7.78712 14.5146 6.74131 15.4007 6.3401Z" fill="#3293FE"/>
</svg>
