<svg width="495" height="27" viewBox="0 0 495 27" fill="none" xmlns="http://www.w3.org/2000/svg">
<path fill-rule="evenodd" clip-rule="evenodd" d="M88.0022 10.0062C82.5981 11.0142 77.5262 12.4736 72.9523 14.5197C72.4542 14.7454 72.3031 15.0613 72.2578 15.1967C72.1823 15.4374 72.2126 15.6632 72.3334 15.8738C72.4088 16.0092 72.5297 16.1748 72.7863 16.2801C72.9674 16.3553 73.4353 16.4154 74.0542 16.4004C75.1109 16.3853 76.7413 16.265 77.5262 16.265C80.2132 16.2951 82.9001 16.2799 85.587 16.3251C94.146 16.4755 95.6404 16.5959 106.645 16.5056C119.491 16.4003 132.367 16.2198 145.228 15.9489C104.35 18.2057 63.5329 20.8386 22.9267 23.291C22.4738 23.3211 22.1266 23.7124 22.1568 24.1637C22.1719 24.6301 22.5794 24.9762 23.0323 24.9461C117.785 19.2289 213.58 12.4886 309.057 12.0523C313.767 12.1576 318.461 12.2629 323.141 12.3682C351.414 13.0302 379.703 13.8276 407.946 15.0613C417.139 15.4675 426.332 15.9189 435.54 16.3401C438.257 16.4605 440.989 16.5808 443.722 16.7012C445.925 16.7915 451.601 17.1225 452.401 17.1376C453.126 17.1526 453.307 16.5058 453.322 16.4757C453.367 16.265 453.337 16.0242 453.156 15.7985C453.111 15.7383 452.99 15.5729 452.718 15.4977C452.673 15.4977 452.462 15.4675 452.024 15.4224C429.321 13.5718 406.557 12.293 383.748 11.4806C386.813 11.5107 389.877 11.5258 392.941 11.5559C416.565 11.7364 440.25 12.3833 463.859 11.5559C469.232 11.3753 474.622 11.1646 479.98 10.9088C483.588 10.7433 492.872 10.954 494.185 10.5628C494.789 10.3973 494.925 9.97603 494.94 9.76539C494.955 9.52467 494.909 9.25386 494.638 9.01313C494.517 8.89277 494.14 8.69728 493.43 8.54683C470.259 3.53679 443.148 4.95093 419.554 3.55173C355.475 -0.28479 291.622 2.273 227.558 4.605C172.264 6.62105 116.97 6.72634 61.7063 9.46456C41.4786 10.4575 20.6171 9.31418 0.676308 13.1056C0.223451 13.1958 -0.0634544 13.6169 0.0120218 14.0683C0.102593 14.5196 0.540392 14.8206 0.993249 14.7304C20.8435 10.954 41.6297 12.1125 61.7818 11.1195C70.5219 10.6832 79.2621 10.3221 88.0022 10.0062ZM258.956 11.1195C225.097 10.5929 191.239 10.322 157.35 10.4875C134.103 10.5928 100.229 6.18478 77.1337 14.6101C77.2998 14.6101 77.4355 14.6101 77.5563 14.6101C80.2432 14.6402 82.9303 14.61 85.6172 14.6701C94.1612 14.8206 95.6555 14.9409 106.63 14.8507C134.692 14.6099 162.829 14.0082 190.876 13.0754C213.595 12.3232 236.283 11.6461 258.956 11.1195ZM487.996 9.17861C466.093 5.35714 441.261 6.50073 419.448 5.20685C355.429 1.37033 291.622 3.92793 227.618 6.25993C199.013 7.3131 170.422 7.83965 141.847 8.48659C147.327 8.69722 152.565 8.84765 157.35 8.8326C205.79 8.59188 254.216 9.23893 302.656 10.262C332.741 9.81065 362.826 9.64515 392.956 9.88587C416.565 10.0815 440.204 10.7134 463.813 9.90093C469.172 9.72039 474.546 9.50968 479.905 9.25391C481.731 9.17868 485.037 9.19365 487.996 9.17861Z" fill="#FEC554"/>
</svg>
