<svg width="203" height="203" viewBox="0 0 203 203" fill="none" xmlns="http://www.w3.org/2000/svg">
<g clip-path="url(#clip0_573_1697)">
<path fill-rule="evenodd" clip-rule="evenodd" d="M109.392 112.344C108.912 111.907 108.496 111.366 108.081 110.826C105.728 108.098 102.952 104.968 101.581 101.544C99.8082 97.0116 100.256 93.4004 102.009 90.5847C104.481 86.6236 109.914 84.3232 115.478 84.2597C121.006 84.1738 126.646 86.17 129.715 90.1973C131.837 92.928 132.786 96.6711 131.642 101.441C130.376 106.855 126.544 110.419 121.631 112.605C119.757 113.477 117.81 114.018 115.745 114.486C117.262 115.842 118.796 117.208 120.355 118.589C125.573 122.919 131.468 126.797 137.436 130C145.269 134.339 153.537 137.217 162.388 138.58C163.168 138.767 163.724 139.537 163.609 140.33C163.493 141.123 162.735 141.668 161.891 141.585C152.698 140.158 144.078 137.21 135.946 132.689C129.874 129.278 123.741 125.398 118.419 120.862C116.232 118.954 114.09 117.075 112.039 115.106C107.46 115.625 102.854 115.41 99.2129 114.775C75.0855 110.149 54.4351 84.4814 42.3776 64.1909C41.946 63.4965 42.1566 62.6169 42.8695 62.188C43.5835 61.7598 44.4846 62.0209 44.9162 62.7153C56.5936 82.3428 76.4123 107.361 99.7803 111.812C102.529 112.335 105.927 112.535 109.392 112.344ZM113.15 111.899C112.155 111.005 111.231 110.011 110.375 108.914C108.266 106.335 105.623 103.575 104.336 100.489C102.99 97.0804 103.202 94.3311 104.501 92.2453C106.58 88.9088 111.026 87.3015 115.501 87.2936C120.074 87.2024 124.821 88.6542 127.315 92.0435C128.944 94.1867 129.623 97.0464 128.766 100.696C127.685 105.216 124.43 108.124 120.425 109.856C118.141 110.91 115.657 111.555 113.15 111.899Z" fill="#00DAA3"/>
<path fill-rule="evenodd" clip-rule="evenodd" d="M42.9492 62.8149C43.0001 63.5651 43.2345 64.4272 43.4701 65.2899C43.8981 66.9891 44.4539 68.6226 44.5386 69.825C45.1414 77.097 45.7736 85.8251 44.0552 92.9781C43.8889 93.7399 43.0733 94.2501 42.2739 94.0509C41.4756 93.8524 40.9464 93.0988 41.1765 92.232C42.7808 85.4412 42.0938 77.11 41.5751 70.0331C41.4421 68.8013 40.7807 66.8169 40.3264 65.1017C39.974 63.5924 39.8096 62.1973 40.1162 61.0893C40.2468 60.4497 41.0319 59.6331 42.5968 59.7232C44.7827 59.9037 49.8808 62.001 50.3948 62.1703C55.594 63.8985 60.2454 65.2932 65.5531 63.0596C66.2871 62.7874 67.1515 63.1704 67.5295 63.8322C67.8437 64.5989 67.4582 65.5152 66.7231 65.7868C60.693 68.2996 55.3043 67.0311 49.4033 65.0193C49.0717 64.8174 46.0365 63.5442 43.7214 62.9972C43.4487 62.9749 43.2188 62.8352 42.9492 62.8149Z" fill="#00DAA3"/>
</g>
<defs>
<clipPath id="clip0_573_1697">
<rect width="147.193" height="147.193" fill="white" transform="matrix(-0.520181 0.854056 0.854056 0.520181 77.0479 0.297729)"/>
</clipPath>
</defs>
</svg>
