<svg width="121" height="121" viewBox="0 0 121 121" fill="none" xmlns="http://www.w3.org/2000/svg">
<g clip-path="url(#clip0_595_1684)">
<path fill-rule="evenodd" clip-rule="evenodd" d="M56.2289 70.6758C56.531 70.2296 56.7602 69.7121 56.9887 69.1952C58.3518 66.5347 59.9771 63.4675 60.4117 60.4379C60.953 56.4367 59.8849 53.6127 57.9193 51.6859C55.1506 48.9764 50.3193 48.186 45.8207 49.2246C41.3473 50.2381 37.1908 52.9524 35.5048 56.8008C34.3292 59.4181 34.2967 62.6221 36.1535 66.2435C38.2353 70.3608 42.0231 72.4836 46.4122 73.2844C48.0946 73.6203 49.7696 73.675 51.5269 73.6476C50.569 75.038 49.5998 76.4403 48.6137 77.8589C45.254 82.3719 41.2608 86.6537 37.0765 90.4055C31.6113 95.4382 25.5084 99.3778 18.639 102.211C18.0465 102.515 17.7497 103.244 17.9977 103.861C18.2463 104.478 18.964 104.769 19.6286 104.537C26.7611 101.585 33.1336 97.52 38.805 92.2811C43.0325 88.3418 47.217 84.012 50.6193 79.3123C52.009 77.3459 53.3679 75.4107 54.6358 73.422C58.4302 72.9433 62.1014 71.8673 64.9126 70.6419C83.4599 62.1861 95.0819 37.4458 100.829 18.7241C101.041 18.0797 100.699 17.4118 100.04 17.2056C99.3804 17.0002 98.705 17.3873 98.4931 18.0317C92.9226 36.1443 81.844 60.1982 63.8748 68.3643C61.7613 69.3244 59.0603 70.1511 56.2289 70.6758ZM53.1119 71.0532C53.739 70.1378 54.2894 69.1557 54.7651 68.1034C55.9602 65.6108 57.5505 62.8675 57.9837 60.1277C58.401 57.1154 57.6919 54.9401 56.2359 53.5129C53.9055 51.2301 50.0062 50.8051 46.397 51.6751C42.6913 52.4976 39.1491 54.5979 37.8019 57.8192C36.9081 59.8663 36.9206 62.3051 38.3269 65.0795C40.0836 68.5128 43.2778 70.2193 46.8465 70.8312C48.8944 71.2342 51.0237 71.2673 53.1119 71.0532Z" fill="#FEC554"/>
<path fill-rule="evenodd" clip-rule="evenodd" d="M100.099 17.7265C100.205 18.3414 100.185 19.0824 100.164 19.8241C100.151 21.278 100.023 22.7039 100.19 23.6899C101.129 29.6713 102.329 36.8324 105.116 42.263C105.399 42.8447 106.157 43.0963 106.762 42.7791C107.367 42.4627 107.646 41.7514 107.291 41.0976C104.667 35.9366 103.589 29.0848 102.621 23.2772C102.487 22.258 102.631 20.5284 102.661 19.0565C102.65 17.7706 102.509 16.6136 102.045 15.7803C101.814 15.2901 101.021 14.7856 99.7773 15.1647C98.0502 15.7385 94.3506 18.4281 93.9693 18.6653C90.1158 21.0771 86.6387 23.1129 81.9217 22.3517C81.2766 22.276 80.6547 22.754 80.4795 23.3617C80.3764 24.0414 80.8667 24.7047 81.5126 24.7797C86.8668 25.6245 90.9631 23.5462 95.3269 20.7682C95.5546 20.5404 97.7524 18.9193 99.5119 18.0248C99.7274 17.9534 99.8854 17.7957 100.099 17.7265Z" fill="#FEC554"/>
</g>
<defs>
<clipPath id="clip0_595_1684">
<rect width="47.3399" height="122.13" fill="white" transform="translate(86.8018 0.442413) rotate(45)"/>
</clipPath>
</defs>
</svg>
