<svg width="29" height="29" viewBox="0 0 29 29" fill="none" xmlns="http://www.w3.org/2000/svg">
<g clip-path="url(#clip0_595_1692)">
<path fill-rule="evenodd" clip-rule="evenodd" d="M3.6928 12.8267C4.98665 12.3656 6.34819 11.7529 7.39814 10.8658C8.64514 9.81214 9.15228 8.45511 9.49284 7.02668C9.93007 5.1915 10.1048 3.23658 10.635 1.39842C10.8313 0.715806 11.209 0.457776 11.3711 0.343263C11.7809 0.0540068 12.195 -0.0233112 12.5847 0.00568877C13.0464 0.0391503 13.6807 0.213882 14.0979 0.987959C14.1574 1.09875 14.2347 1.26756 14.2867 1.49881C14.3247 1.66835 14.3492 2.19852 14.3893 2.41714C14.4897 2.9555 14.5738 3.49387 14.6526 4.03521C14.9151 5.83692 15.066 7.36721 15.8951 9.02244C17.0202 11.2696 18.1475 12.6445 19.6763 13.2535C21.1546 13.8424 22.9221 13.7316 25.1803 13.2699C25.3952 13.2178 25.6079 13.1732 25.8183 13.1367C26.814 12.9627 27.7658 13.6164 27.9614 14.6083C28.1569 15.5995 27.5241 16.5654 26.5374 16.7833C26.3314 16.8287 26.1284 16.8718 25.9277 16.9112C22.876 17.6667 19.3431 20.3629 17.2901 22.7238C16.6573 23.4518 15.7308 25.487 14.7857 26.7853C14.0882 27.7431 13.3045 28.3744 12.6464 28.5975C12.2054 28.7477 11.8336 28.7246 11.5265 28.6488C11.0804 28.5387 10.7101 28.297 10.426 27.9126C10.2714 27.7022 10.1278 27.4203 10.0594 27.0604C10.0267 26.8872 10.023 26.447 10.0238 26.2477C9.83117 25.5852 9.59544 24.9382 9.42367 24.2698C9.01395 22.6748 8.21012 21.665 7.25535 20.331C6.3623 19.0825 5.4031 18.298 3.99697 17.6719C3.81405 17.6273 2.33802 17.2659 1.81676 17.0584C1.05533 16.7543 0.692438 16.2449 0.560822 15.9705C0.337002 15.5051 0.313971 15.0983 0.358586 14.7593C0.424766 14.2588 0.649331 13.8305 1.0479 13.4848C1.29477 13.2699 1.66359 13.0609 2.15733 12.959C2.5388 12.8794 3.55078 12.8334 3.6928 12.8267ZM12.3519 10.2271C12.4203 10.3795 12.4932 10.5327 12.5705 10.6873C14.2183 13.9785 16.0609 15.8159 18.3006 16.7075L18.3758 16.7365C16.8774 17.8489 15.5211 19.0921 14.4845 20.2841C14.0577 20.7749 13.4926 21.7944 12.8821 22.8398C12.3274 21.0366 11.4202 19.7621 10.2795 18.1671C9.40806 16.9499 8.49493 16.0338 7.37286 15.2872C8.2436 14.8403 9.07418 14.3168 9.79769 13.7056C11.0023 12.6876 11.7987 11.5083 12.3519 10.2271Z" fill="#FEC554"/>
</g>
<defs>
<clipPath id="clip0_595_1692">
<rect width="29" height="29" fill="white"/>
</clipPath>
</defs>
</svg>
