<svg width="346" height="348" viewBox="0 0 346 348" fill="none" xmlns="http://www.w3.org/2000/svg">
<path d="M345.267 6.50922C323.441 38.1016 315.21 75.9176 304.553 112.224C303.898 114.418 301.603 115.691 299.412 115.034C297.218 114.394 295.951 112.079 296.607 109.886C307.506 72.7342 316.125 34.1122 338.457 1.78002C339.766 -0.100882 342.34 -0.56044 344.223 0.73455C346.101 2.04556 346.56 4.62402 345.267 6.50922Z" fill="#FFFDF9"/>
<path d="M238.904 56.4879C238.769 72.5577 243.282 87.0934 250.7 101.292C251.761 103.311 250.972 105.83 248.95 106.884C246.922 107.954 244.42 107.162 243.363 105.127C235.304 89.6916 230.477 73.8869 230.626 56.4127C230.642 54.1335 232.514 52.2835 234.801 52.2963C237.084 52.3251 238.925 54.1926 238.904 56.4879Z" fill="#FFFDF9"/>
<path d="M94.3801 59.7889C100.261 78.263 111.493 92.3008 127.972 102.321C129.927 103.498 130.55 106.052 129.361 108.016C128.178 109.965 125.624 110.602 123.673 109.409C105.428 98.3143 93.0053 82.7551 86.4916 62.3082C85.7971 60.13 87.0022 57.7918 89.1765 57.1047C91.3551 56.4015 93.6856 57.6107 94.3801 59.7889Z" fill="#FFFDF9"/>
<path d="M65.1211 287.228C61.566 283.732 58.3767 279.889 55.5563 275.801C23.926 282.337 3.81168 311.367 9.14268 343.155C9.51921 345.42 7.99865 347.553 5.74252 347.943C3.49068 348.318 1.35255 346.8 0.976021 344.535C-4.94074 309.258 16.5799 276.914 50.9777 268.339C48.9137 264.557 47.1337 260.611 45.6365 256.569C31.657 218.786 51.4578 173.978 94.6537 147.142C108.073 138.809 130.278 137.711 154.336 140.458C181.388 143.545 210.831 151.258 231.944 157.421C221.164 149.618 211.161 141.026 201.307 131.943C163.772 97.3334 123.724 62.6846 100.503 16.2224C99.4839 14.1631 100.312 11.6722 102.352 10.6573C104.398 9.62641 106.885 10.4658 107.907 12.5087C130.68 58.061 170.108 91.9078 206.916 125.841C218.499 136.522 230.287 146.502 243.366 155.284C247.254 157.907 251.103 160.554 255.123 162.972C255.751 163.346 256.839 163.432 257.796 163.655C259.173 163.99 260.438 164.398 261.296 164.886C262.844 165.782 263.668 167.033 263.97 168.368C264.186 169.353 264.155 170.495 263.555 171.776C263.13 172.658 262.311 173.864 260.324 174.137C259.918 174.2 258.024 174.001 254.983 173.099C242.679 169.419 201.041 155.515 161.954 149.817C136.852 146.154 112.823 145.613 99.0185 154.185C59.5874 178.683 40.6429 219.188 53.4001 253.69C55.1131 258.323 57.2387 262.791 59.7682 267.024C65.5434 267.251 75.1794 269.46 80.7927 273.49C83.7291 275.6 85.6425 278.208 86.2136 281.04C86.8101 283.982 86.1323 287.406 82.8711 291.047C80.4132 293.787 77.0279 294.201 73.492 292.908C70.17 291.708 66.7033 288.786 65.1211 287.228Z" fill="#FFFDF9"/>
</svg>
