<svg width="387" height="27" viewBox="0 0 387 27" fill="none" xmlns="http://www.w3.org/2000/svg">
<path fill-rule="evenodd" clip-rule="evenodd" d="M128.299 2.38504C85.6223 1.82556 42.7718 3.87021 1.46452 12.4557C0.727528 12.6083 0.421577 12.9084 0.361278 12.9771C0.00841501 13.384 -0.0296167 13.8163 0.0150495 14.1723C0.0418492 14.3885 0.222826 15.3014 1.21218 15.3955C1.89557 15.4591 6.74625 15.0141 8.61776 14.8996C17.4282 14.363 26.2208 13.5976 35.0089 12.7126C54.9345 10.7137 74.8332 8.98439 94.79 7.41021C105.995 6.52521 117.204 5.79278 128.406 5.1926C155.355 5.55118 182.238 6.94991 208.617 8.39439C198.132 9.12934 188.498 9.87447 180.509 10.3577C167.038 11.1714 153.591 12.1327 140.146 13.3992C133.239 14.0477 126.34 14.7521 119.446 15.5837C118.682 15.6778 116.942 15.7745 116.1 15.8889C115.743 15.9347 115.484 16.0084 115.368 16.0593C114.64 16.3797 114.548 17.0358 114.539 17.3664C114.535 17.5673 114.595 18.6634 115.823 18.877C172.936 28.9019 232.521 17.2393 289.838 26.9844C290.511 27.0989 291.14 26.5699 291.241 25.8019C291.341 25.0364 290.877 24.3193 290.202 24.2048C236.219 15.0268 180.223 24.8406 126.17 17.636C130.894 17.1147 135.619 16.6442 140.35 16.1991C153.769 14.9352 167.192 13.9765 180.641 13.1627C194.175 12.3464 212.47 10.7518 231.62 9.7473C248.055 10.79 264.481 11.9598 280.918 12.9516C287.853 13.3687 294.79 13.7145 301.722 14.1392C304.572 14.3122 311.903 15.0369 312.966 14.7674C313.793 14.5563 313.992 13.8824 314.041 13.5442C314.092 13.178 314.061 12.7227 313.686 12.2879C313.569 12.1505 313.221 11.8657 312.506 11.6317C293.177 5.32741 261.527 5.42658 231.884 6.94989C225.508 6.543 219.132 6.15645 212.753 5.80805C198.152 5.00697 183.39 4.20334 168.543 3.57011C210.384 2.39265 252.245 2.7309 294.117 3.58283C311.698 3.94141 359.087 6.10306 377.75 8.01292C377.523 8.27995 377.389 8.65124 377.404 9.05559C377.435 9.82869 378.014 10.4289 378.695 10.3933C382.545 10.1898 384.772 9.93042 385.654 9.66339C386.203 9.49809 386.503 9.23361 386.641 9.06068C386.981 8.64361 387.043 8.19601 386.976 7.77131C386.934 7.50683 386.829 7.21692 386.588 6.94989C386.427 6.76679 386.034 6.48706 385.364 6.29633C378.027 4.21862 315.095 1.19994 294.162 0.772697C238.845 -0.351353 183.551 -0.58021 128.299 2.38504ZM297.543 11.0773C286.734 9.40652 274.062 8.81907 260.843 8.85722C267.577 9.30226 274.312 9.73715 281.05 10.144C286.546 10.4772 292.045 10.762 297.543 11.0773ZM77.3167 6.01405C63.1352 7.20422 48.9692 8.49102 34.7922 9.91516C33.1552 10.0779 31.5204 10.2381 29.8834 10.3958C45.5612 8.20874 61.4021 6.81767 77.3167 6.01405Z" fill="#FEC554"/>
</svg>
