<svg width="67" height="65" viewBox="0 0 67 65" fill="none" xmlns="http://www.w3.org/2000/svg">
<path fill-rule="evenodd" clip-rule="evenodd" d="M6.14022 34.1141C8.19003 25.7147 8.0558 17.626 8.30146 9.10638C8.3492 7.44254 7.05227 6.05925 5.40625 6.00914C3.75924 5.95902 2.3847 7.2721 2.33597 8.93594C2.10324 17.0146 2.29123 24.7023 0.345847 32.6807C-0.0480037 34.2944 0.931672 35.9282 2.53094 36.3191C4.12922 36.72 5.74736 35.7278 6.14022 34.1141Z" fill="#AB79FF"/>
<path fill-rule="evenodd" clip-rule="evenodd" d="M23.5552 50.3917C37.4613 37.5821 50.5638 21.1041 59.7218 4.46568C60.5204 3.01232 60.0003 1.17801 58.5601 0.376158C57.12 -0.425694 55.3019 0.0955538 54.5033 1.54891C45.6476 17.6361 32.9758 33.5729 19.5292 45.9515C18.3138 47.0741 18.2292 48.9785 19.3402 50.2013C20.4511 51.4241 22.3398 51.5143 23.5552 50.3917Z" fill="#AB79FF"/>
<path fill-rule="evenodd" clip-rule="evenodd" d="M27.0779 64.384C39.7965 66.4989 52.906 62.8906 64.4708 57.7888C65.9796 57.1173 66.6679 55.3432 66.0085 53.8297C65.3481 52.3062 63.5867 51.6146 62.0779 52.2761C51.5454 56.9268 39.6334 60.3748 28.0496 58.4504C26.4245 58.1798 24.8879 59.2923 24.6203 60.9261C24.3518 62.5598 25.4538 64.1134 27.0779 64.384Z" fill="#AB79FF"/>
</svg>
