<svg width="262" height="40" viewBox="0 0 262 40" fill="none" xmlns="http://www.w3.org/2000/svg">
<path fill-rule="evenodd" clip-rule="evenodd" d="M111.274 3.83081C98.9654 5.1436 86.8011 6.7578 74.9389 8.52252C58.1466 11.019 41.3608 13.6015 24.6762 17.6905C19.4243 18.9818 14.0909 19.7995 8.87177 21.4136C5.59554 22.4251 1.25134 23.8668 0.68122 24.1681C0.383023 24.3403 0.25293 24.5988 0.210893 24.6849C-0.0846769 25.2875 -0.0307463 25.8683 0.136086 26.3202C0.203082 26.5139 0.372495 26.9876 0.84278 27.0521C32.294 31.464 64.4547 22.8555 95.9441 21.9517C150.552 20.4021 206.816 26.5572 260.99 39.9863C261.463 40.0939 261.923 39.5558 261.989 38.7595C262.067 37.9847 261.726 37.2315 261.253 37.1238C206.986 23.6732 150.631 17.4966 95.9178 19.0676C66.571 19.907 36.6448 27.461 7.2573 24.8785C7.93251 24.6633 8.59462 24.448 9.1989 24.2543C14.397 22.6402 19.708 21.844 24.939 20.5527C41.5881 16.4637 58.3397 13.8812 75.1097 11.4063C95.9178 8.30724 117.632 5.6386 139.518 4.39038C147.347 4.58407 155.15 4.77785 162.953 5.01458C179.833 5.53108 196.793 7.03757 213.633 9.06055C218.704 9.68466 223.775 10.3302 228.845 10.8898C230.527 11.0835 234.862 11.6429 235.466 11.5999C236.215 11.5568 236.359 10.5239 236.373 10.3518C236.412 9.96438 236.386 9.42632 236.018 8.97438C235.978 8.90982 235.742 8.69447 235.217 8.56534C204.596 0.946885 171.899 -0.322659 139.544 1.50663C105.415 0.710353 71.1556 0.365858 37.1138 0C36.6265 0 36.2284 0.645727 36.2245 1.44201C36.2219 2.23829 36.6146 2.88403 37.102 2.90555C61.7512 3.16381 86.5252 3.42191 111.274 3.83081Z" fill="#FEC554"/>
</svg>
