<svg width="103" height="101" viewBox="0 0 103 101" fill="none" xmlns="http://www.w3.org/2000/svg">
<path fill-rule="evenodd" clip-rule="evenodd" d="M86.4239 43.3508C88.1595 50.1478 90.8672 56.7499 93.5385 63.1285C94.1182 64.4999 95.6915 65.1754 96.9945 64.545C98.3513 64.0054 98.9675 62.4303 98.4406 61.1503C95.8465 54.9708 93.1984 48.5795 91.5598 42.0921C91.2166 40.706 89.772 39.8333 88.3472 40.1685C86.9233 40.5031 86.0816 41.9642 86.4239 43.3508Z" fill="#00DAA3"/>
<path fill-rule="evenodd" clip-rule="evenodd" d="M52.9156 39.0569C48.7441 54.017 46.4951 69.4512 41.9603 84.3773C41.5139 85.7317 42.3088 87.2226 43.6965 87.64C45.0851 88.0569 46.5854 87.3121 46.979 85.8662C51.5421 70.9238 53.8185 55.4737 58.0184 40.4973C58.3901 39.0641 57.5588 37.5948 56.1464 37.1916C54.7877 36.8793 53.2873 37.6238 52.9156 39.0569Z" fill="#00DAA3"/>
<path fill-rule="evenodd" clip-rule="evenodd" d="M5.78074 42.7496C11.1208 39.301 16.4611 35.8529 21.8021 32.4037C23.0615 31.6766 23.4004 30.0179 22.6004 28.7737C21.7996 27.53 20.2001 27.2356 18.9398 27.9632C13.5906 31.4172 8.24205 34.87 2.89379 38.3234C1.68714 39.1419 1.35439 40.7966 2.16168 42.0366C2.9162 43.1851 4.575 43.5676 5.78074 42.7496Z" fill="#00DAA3"/>
</svg>
