<svg width="36" height="37" viewBox="0 0 36 37" fill="none" xmlns="http://www.w3.org/2000/svg">
<g clip-path="url(#clip0_547_1781)">
<path fill-rule="evenodd" clip-rule="evenodd" d="M13.3454 28.5056C13.235 27.1366 12.9955 25.6628 12.4104 24.4191C11.7154 22.9418 10.5358 22.1007 9.24423 21.4021C7.58475 20.5048 5.74165 19.83 4.10336 18.8422C3.49481 18.4759 3.34335 18.0442 3.27469 17.858C3.10133 17.3874 3.13384 16.9673 3.2627 16.5985C3.41453 16.1611 3.74748 15.5936 4.60315 15.391C4.72557 15.3622 4.90863 15.3312 5.14548 15.3408C5.31905 15.3481 5.83751 15.4616 6.05907 15.4794C6.60506 15.5218 7.14684 15.5799 7.69013 15.6439C9.49839 15.8567 11.0156 16.1069 12.829 15.7345C15.2908 15.2294 16.9106 14.4963 17.8945 13.1772C18.846 11.9018 19.1964 10.1658 19.3349 7.86498C19.3402 7.64393 19.3522 7.42698 19.3714 7.21428C19.4611 6.20751 20.3388 5.4573 21.3475 5.52513C22.3556 5.59278 23.1248 6.45399 23.0799 7.4635C23.0704 7.6742 23.0595 7.88145 23.0456 8.08558C22.9855 11.2288 24.6755 15.3391 26.4246 17.9332C26.964 18.7329 28.69 20.1546 29.6995 21.4035C30.4441 22.3251 30.851 23.2455 30.8962 23.9389C30.9272 24.4037 30.8087 24.7569 30.6559 25.0339C30.4342 25.4364 30.1049 25.7315 29.66 25.9063C29.4167 26.0013 29.1073 26.067 28.742 26.0399C28.5662 26.0267 28.1401 25.9163 27.9478 25.864C27.2579 25.8786 26.572 25.9388 25.8819 25.9317C24.2352 25.9147 23.0517 26.4298 21.5161 27.0067C20.079 27.5462 19.073 28.2697 18.1043 29.4659C18.0138 29.631 17.2827 30.9632 16.9474 31.413C16.4566 32.0698 15.8707 32.2885 15.5716 32.3446C15.064 32.4403 14.6652 32.3573 14.3492 32.2264C13.883 32.033 13.5274 31.7052 13.2965 31.2307C13.1529 30.9367 13.0465 30.5263 13.0759 30.023C13.0977 29.634 13.3151 28.6446 13.3454 28.5056ZM13.0755 19.4687C13.2405 19.4421 13.4073 19.4114 13.5767 19.3767C17.1822 18.6369 19.4339 17.3326 20.8748 15.4L20.9222 15.3349C21.6089 17.0701 22.4588 18.702 23.3419 20.0118C23.7055 20.5511 24.5439 21.3608 25.3958 22.221C23.5105 22.2902 22.0446 22.8366 20.2087 23.5255C18.8074 24.0523 17.6862 24.6972 16.6746 25.5878C16.4683 24.6311 16.1776 23.6933 15.7745 22.8362C15.103 21.4092 14.1699 20.3347 13.0755 19.4687Z" fill="#FF5E87"/>
</g>
<defs>
<clipPath id="clip0_547_1781">
<rect width="29" height="29" fill="white" transform="translate(0 28.7531) rotate(-75)"/>
</clipPath>
</defs>
</svg>
