<svg width="60" height="30" viewBox="0 0 60 30" fill="none" xmlns="http://www.w3.org/2000/svg">
<g clip-path="url(#clip0_595_1700)">
<path fill-rule="evenodd" clip-rule="evenodd" d="M3.19288 3.8819C14.4541 24.8219 36.9495 33.3351 57.8428 21.5464C58.5384 21.1539 59.4204 21.3993 59.813 22.0863C60.2055 22.7855 59.9601 23.6687 59.2646 24.0612C36.8698 36.7086 12.7171 27.6924 0.646246 5.25581C0.268419 4.55659 0.532138 3.67324 1.23504 3.29296C1.93795 2.92494 2.81506 3.18268 3.19288 3.8819Z" fill="#3293FE"/>
<path d="M40.2607 12.5657C37.9345 12.5657 36.0488 10.68 36.0488 8.35376C36.0488 6.02757 37.9345 4.14185 40.2607 4.14185C42.5869 4.14185 44.4727 6.02757 44.4727 8.35376C44.4727 10.68 42.5869 12.5657 40.2607 12.5657Z" fill="#3293FE"/>
<path d="M22.8235 8.08525C20.5428 8.08525 18.6939 6.23638 18.6939 3.95565C18.6939 1.67492 20.5428 -0.17395 22.8235 -0.17395C25.1043 -0.17395 26.9531 1.67492 26.9531 3.95565C26.9531 6.23638 25.1043 8.08525 22.8235 8.08525Z" fill="#3293FE"/>
</g>
<defs>
<clipPath id="clip0_595_1700">
<rect width="60" height="30" fill="white" transform="matrix(-1 0 0 1 60 0)"/>
</clipPath>
</defs>
</svg>
