<svg width="155" height="155" viewBox="0 0 155 155" fill="none" xmlns="http://www.w3.org/2000/svg">
<g clip-path="url(#clip0_595_1688)">
<path fill-rule="evenodd" clip-rule="evenodd" d="M6.32711 52.9533C57.8191 35.5147 103.025 66.6417 131.21 108.83C131.696 109.554 132.678 109.751 133.402 109.266C134.126 108.78 134.323 107.798 133.838 107.074C104.865 63.7026 58.2461 32.034 5.31178 49.962C4.48655 50.2397 4.04434 51.1366 4.32378 51.9654C4.60141 52.7906 5.49834 53.2328 6.32711 52.9533Z" fill="#00DAA3"/>
<path fill-rule="evenodd" clip-rule="evenodd" d="M131.996 107.16C129.518 105.908 126.425 104.303 126.069 104.131C116.415 99.4718 106.555 96.5598 95.9285 94.9878C95.0662 94.8591 94.2614 95.4576 94.1327 96.32C94.0041 97.1823 94.6025 97.987 95.4649 98.1157C105.77 99.6368 115.333 102.458 124.697 106.979C125.243 107.242 132.193 110.855 133.653 111.48C134.251 111.739 134.669 111.7 134.767 111.682C135.291 111.603 135.597 111.335 135.791 111.083C136.009 110.798 136.252 110.24 136.125 109.463C135.988 108.651 135.294 107.045 135.152 106.625C133.02 100.286 130.089 93.3977 128.676 86.4863C127.329 79.8954 127.364 73.2757 131.074 67.1492C131.527 66.4037 131.285 65.4302 130.54 64.9779C129.794 64.5255 128.821 64.7668 128.369 65.5122C124.222 72.3627 124.074 79.7521 125.579 87.1175C126.983 93.9879 129.841 100.838 131.996 107.16Z" fill="#00DAA3"/>
</g>
<defs>
<clipPath id="clip0_595_1688">
<rect width="114.408" height="114.408" fill="white" transform="translate(52.0898 154.008) rotate(-117.021)"/>
</clipPath>
</defs>
</svg>
