<svg width="268" height="42" viewBox="0 0 268 42" fill="none" xmlns="http://www.w3.org/2000/svg">
<path fill-rule="evenodd" clip-rule="evenodd" d="M71.4949 16.7807C60.0896 13.2571 46.9123 9.71858 34.1947 8.67046C23.3246 7.77562 12.7942 8.68699 4.10918 13.1951C2.88492 13.8298 1.37402 13.3524 0.739306 12.1272C0.103576 10.9029 0.582013 9.39195 1.8063 8.75622C11.2805 3.83982 22.7479 2.71077 34.6047 3.68785C47.5511 4.75395 60.9669 8.31869 72.6013 11.8943C74.0061 9.16938 76.8604 6.65581 81.8426 4.85149C89.4952 2.07962 99.8739 2.2968 110.78 4.12441C126.597 6.77386 143.558 12.7297 154.456 16.9416C154.903 17.1134 155.568 17.3861 156.382 17.7443C156.642 17.1968 156.931 16.6577 157.25 16.1292C160.021 11.5229 164.846 7.84353 169.719 6.58438C200.623 -1.39949 236.339 9.43652 265.42 18.2554C266.733 18.6554 267.479 20.0525 267.086 21.3729C266.682 22.6931 265.289 23.4399 263.966 23.0397C235.701 14.4671 201.004 3.66797 170.964 11.4259C167.267 12.3815 163.637 15.2106 161.536 18.7064C161.299 19.0963 161.092 19.4958 160.895 19.9014C164.89 21.9684 169.58 24.8347 172.078 27.8588C174.644 30.959 175.237 34.2309 172.904 37.2706C170.898 39.869 167.925 40.0411 164.859 38.6224C161.555 37.1025 158.185 33.6252 157.103 32.0021C155.076 28.9703 154.473 25.7092 154.908 22.5473C153.935 22.1163 153.145 21.7945 152.657 21.6059C141.997 17.4872 125.42 11.647 109.954 9.05568C100.002 7.38775 90.528 7.02339 83.5448 9.5519C80.5666 10.6311 78.5888 11.9167 77.5012 13.43C79.584 14.0924 81.592 14.7436 83.5104 15.3652C87.3045 16.5946 95.2127 18.6579 100.827 22.1874C105.292 24.9938 108.286 28.7576 108.027 33.4058C107.895 35.7938 106.484 37.3645 104.268 38.2199C100.956 39.4973 95.28 38.7522 93.1702 38.2653C86.7709 36.7914 78.2967 31.0046 74.1662 24.5785C72.5177 22.0143 71.5571 19.3452 71.4949 16.7807ZM76.7438 18.4346C78.549 19.0121 80.2934 19.5787 81.9691 20.122C85.5106 21.27 92.9234 23.1247 98.1656 26.4207C100.942 28.1654 103.197 30.237 103.035 33.1276C103.022 33.3524 102.798 33.4125 102.6 33.5011C102.292 33.6367 101.942 33.7277 101.568 33.7971C99.0428 34.2671 95.671 33.7112 94.2924 33.3931C88.9232 32.1562 81.8374 27.2668 78.372 21.8745C77.6397 20.7356 77.0609 19.5783 76.7438 18.4346ZM159.807 24.9352C162.136 26.185 164.57 27.6897 166.482 29.3144C167.497 30.1772 168.351 31.0612 168.886 31.9727C169.332 32.7266 169.499 33.4937 168.936 34.222C168.711 34.5171 168.381 34.5173 168.042 34.4554C167.683 34.3891 167.315 34.2547 166.948 34.0832C164.528 32.9668 162.052 30.4142 161.262 29.2233C160.336 27.8419 159.892 26.3899 159.807 24.9352Z" fill="#FEC554"/>
</svg>
