<svg width="196" height="451" viewBox="0 0 196 451" fill="none" xmlns="http://www.w3.org/2000/svg">
<path fill-rule="evenodd" clip-rule="evenodd" d="M137.64 90.3295L137.542 90.6354C137.074 91.9087 136.569 93.192 136.34 94.0917C133.245 106.361 125.463 118.399 118.141 128.577C100.611 152.92 84.3906 178.2 68.6733 203.754C64.2689 210.914 60.7465 218.606 56.8215 226.027C55.6622 228.224 54.5451 230.43 53.4188 232.639C52.9388 233.606 51.4401 235.355 50.8651 236.378C50.442 237.11 50.3146 237.753 50.3026 238.156C50.2962 239.175 50.7404 239.865 51.4127 240.324C51.8437 240.628 52.6036 241.003 53.8313 240.664C66.7296 237.058 82.0689 226.309 97.6003 213.183C120.413 193.904 143.721 169.54 160.351 156.339C164.726 152.871 172.42 144.27 179.866 137.723C183.161 134.814 186.356 132.271 189.131 130.998C187.823 133.086 185.951 135.534 185.137 137.079C181.623 143.761 177.089 149.877 173.195 156.331C161.343 175.959 137.562 242.397 131.42 264.657C126.445 282.661 107.891 387.769 119.997 448.643C120.258 449.951 121.524 450.8 122.833 450.539C124.141 450.278 124.988 449.003 124.73 447.705C112.77 387.559 131.155 283.725 136.068 265.937C142.146 243.924 165.605 178.221 177.32 158.83C181.272 152.291 185.842 146.085 189.403 139.32C190.687 136.88 194.283 132.293 195.025 129.918C195.445 128.578 195.228 127.508 194.802 126.813C194.275 125.966 193.312 125.166 191.436 125.359C188.366 125.683 184.5 127.807 180.45 130.958C172.022 137.529 162.435 148.533 157.354 152.57C140.698 165.788 117.339 190.185 94.4874 209.506C81.7483 220.266 69.2099 229.466 58.1069 234.068C59.0856 232.129 60.0786 230.205 61.0902 228.277C64.9581 220.942 68.4287 213.353 72.7761 206.279C88.4413 180.828 104.595 155.636 122.052 131.392C129.717 120.743 137.777 108.102 141.022 95.273C141.476 93.4642 143.011 90.0582 143.053 88.35C143.079 87.2549 142.709 86.4356 142.206 85.9015C141.599 85.2358 140.684 84.7318 139.238 84.9996C133.314 86.0779 124.007 90.4484 113.388 96.4482C89.2742 110.087 58.1098 132.084 44.9861 140.552C36.1714 146.238 27.5412 152.314 18.5509 157.718C18.1037 157.987 9.15993 162.41 4.89813 164.51C5.10085 161.651 6.01911 157.622 7.2411 153.012C11.5509 136.813 20.354 114.01 22.9365 107.058C27.8838 93.7236 33.1635 80.5493 37.8 67.0981C45.1175 45.8708 51.7295 24.4333 59.2777 3.28398C59.732 2.03422 59.0725 0.653657 57.8247 0.209349C56.5651 -0.241775 55.1836 0.417778 54.7387 1.66504C47.1744 22.8287 40.558 44.2874 33.2361 65.5358C28.6176 78.9422 23.3489 92.0836 18.4127 105.385C15.8079 112.402 6.93365 135.425 2.5842 151.774C0.586509 159.267 -0.36807 165.472 0.320542 168.452C0.521522 169.277 1.41323 170.815 3.70785 170.32C6.64369 169.683 20.4 162.233 21.0372 161.853C30.0691 156.418 38.7409 150.311 47.5998 144.603C60.6819 136.167 91.7352 114.239 115.764 100.653C124.412 95.7607 132.106 91.9321 137.64 90.3295Z" fill="#FFFDF9"/>
</svg>
