<svg width="84" height="89" viewBox="0 0 84 89" fill="none" xmlns="http://www.w3.org/2000/svg">
<path fill-rule="evenodd" clip-rule="evenodd" d="M22.9309 71.997C17.2138 68.6057 10.976 65.9964 4.91232 63.5123C3.60506 62.9819 2.09824 63.5834 1.64758 64.8789C1.10007 66.1495 1.74252 67.6178 2.95319 68.1223C8.83173 70.5247 14.8884 73.0327 20.333 76.2816C21.4917 76.9803 23.0444 76.5971 23.7744 75.4179C24.5043 74.2396 24.0893 72.6966 22.9309 71.997Z" fill="#3293FE"/>
<path fill-rule="evenodd" clip-rule="evenodd" d="M48.2595 52.4225C41.031 39.6038 32.1965 27.7556 25.2341 14.7163C24.6256 13.5097 23.0941 13.0434 21.8846 13.6935C20.6749 14.3446 20.1687 15.8489 20.8738 17.0813C27.8282 30.1506 36.6549 42.0278 43.8754 54.8764C44.5867 56.0857 46.1282 56.5133 47.3446 55.8371C48.4642 55.136 48.9708 53.6318 48.2595 52.4225Z" fill="#3293FE"/>
<path fill-rule="evenodd" clip-rule="evenodd" d="M77.3669 18.3666C76.0996 24.2553 74.8318 30.1438 73.5642 36.0334C73.2076 37.3645 74.0919 38.7029 75.4615 39.0006C76.8314 39.2972 78.1004 38.4229 78.4573 37.0909C79.7271 31.1925 80.9973 25.2953 82.2669 19.398C82.527 18.0411 81.6413 16.7094 80.2695 16.4195C78.9944 16.1555 77.6267 17.0107 77.3669 18.3666Z" fill="#3293FE"/>
</svg>
