<svg width="48" height="47" viewBox="0 0 48 47" fill="none" xmlns="http://www.w3.org/2000/svg">
<path fill-rule="evenodd" clip-rule="evenodd" d="M8.03034 26.6357C10.4712 31.0653 11.6185 35.6534 13.0478 40.4269C13.3268 41.3591 12.7959 42.3386 11.864 42.6187C10.9315 42.8988 9.94823 42.3676 9.66866 41.4355C8.31345 36.9091 7.25753 32.5391 4.93994 28.3313C4.47097 27.4802 4.78294 26.4078 5.63661 25.9425C6.48821 25.4717 7.56193 25.7845 8.03034 26.6357Z" fill="#FF5E87"/>
<path fill-rule="evenodd" clip-rule="evenodd" d="M15.5074 14.7803C25.3829 19.8871 35.3548 27.1882 43.0995 35.1832C43.7752 35.8818 43.7559 36.9972 43.0552 37.6702C42.3545 38.3433 41.238 38.327 40.5622 37.6284C33.0735 29.8985 23.4293 22.837 13.8814 17.9034C13.0178 17.4554 12.6814 16.3929 13.1305 15.5325C13.5795 14.672 14.6439 14.3323 15.5074 14.7803Z" fill="#FF5E87"/>
<path fill-rule="evenodd" clip-rule="evenodd" d="M15.4009 6.34011C22.3404 3.20068 30.3689 3.23333 37.7418 4.34556C38.7045 4.49403 39.3658 5.39057 39.2184 6.34608C39.072 7.3074 38.1713 7.96736 37.21 7.82455C30.4947 6.80912 23.1739 6.68386 16.8533 9.54219C15.9667 9.94356 14.9213 9.55032 14.5214 8.66865C14.1209 7.78714 14.5149 6.74132 15.4009 6.34011Z" fill="#FF5E87"/>
</svg>
