<svg width="141" height="141" viewBox="0 0 141 141" fill="none" xmlns="http://www.w3.org/2000/svg">
<g clip-path="url(#clip0_547_1764)">
<path fill-rule="evenodd" clip-rule="evenodd" d="M134.48 31.7499C80.4847 25.4184 42.7533 65.2782 23.973 112.412C23.6489 113.221 22.7291 113.619 21.9202 113.295C21.1112 112.97 20.7137 112.051 21.0378 111.242C40.3413 62.7868 79.3421 22.1029 134.85 28.6127C135.715 28.7124 136.334 29.4976 136.233 30.3664C136.134 31.2313 135.348 31.8506 134.48 31.7499Z" fill="#3293FE"/>
<path fill-rule="evenodd" clip-rule="evenodd" d="M22.8571 110.942C25.0201 109.202 27.7104 106.987 28.023 106.745C36.4951 100.177 45.5321 95.2753 55.5982 91.5245C56.4148 91.2191 57.3266 91.6369 57.6321 92.4535C57.9375 93.2701 57.5198 94.1819 56.7031 94.4873C46.9408 98.1213 38.1753 102.873 29.9579 109.245C29.4787 109.616 23.434 114.597 22.136 115.513C21.6055 115.891 21.1878 115.939 21.0881 115.942C20.5595 115.973 20.204 115.775 19.9618 115.57C19.69 115.336 19.3356 114.841 19.2985 114.055C19.2631 113.232 19.6072 111.516 19.6591 111.076C20.4238 104.432 21.856 97.0842 21.7977 90.0302C21.7426 83.3033 20.3299 76.836 15.425 71.6166C14.8273 70.9817 14.8606 69.9793 15.4954 69.3816C16.1303 68.7839 17.1328 68.8171 17.7305 69.452C23.2131 75.2885 24.8969 82.485 24.9591 90.0023C25.0162 97.0146 23.6477 104.31 22.8571 110.942Z" fill="#3293FE"/>
</g>
<defs>
<clipPath id="clip0_547_1764">
<rect width="114.408" height="114.408" fill="white" transform="matrix(0.258819 -0.965926 -0.965926 -0.258819 110.768 140.12)"/>
</clipPath>
</defs>
</svg>
