<svg width="30" height="29" viewBox="0 0 30 29" fill="none" xmlns="http://www.w3.org/2000/svg">
<g clip-path="url(#clip0_547_1777)">
<path fill-rule="evenodd" clip-rule="evenodd" d="M3.95184 12.8267C5.24568 12.3656 6.60722 11.7529 7.65717 10.8658C8.90417 9.81212 9.41131 8.4551 9.75187 7.02666C10.1891 5.19148 10.3638 3.23656 10.894 1.39841C11.0903 0.715791 11.4681 0.457761 11.6302 0.343248C12.0399 0.0539916 12.454 -0.0233265 12.8437 0.00567351C13.3055 0.0391351 13.9398 0.213867 14.3569 0.987944C14.4164 1.09874 14.4937 1.26754 14.5458 1.4988C14.5837 1.66834 14.6082 2.19851 14.6484 2.41712C14.7488 2.95548 14.8328 3.49386 14.9116 4.03519C15.1741 5.83691 15.3251 7.36719 16.1542 9.02243C17.2792 11.2696 18.4065 12.6445 19.9353 13.2535C21.4136 13.8424 23.1811 13.7316 25.4394 13.2698C25.6543 13.2178 25.8669 13.1732 26.0774 13.1367C27.073 12.9627 28.0248 13.6163 28.2204 14.6083C28.416 15.5995 27.7832 16.5654 26.7964 16.7833C26.5905 16.8286 26.3875 16.8718 26.1867 16.9112C23.135 17.6667 19.6022 20.3629 17.5491 22.7238C16.9163 23.4518 15.9898 25.487 15.0447 26.7853C14.3472 27.743 13.5635 28.3744 12.9054 28.5974C12.4645 28.7476 12.0927 28.7246 11.7856 28.6488C11.3394 28.5387 10.9691 28.297 10.6851 27.9126C10.5304 27.7021 10.3869 27.4203 10.3185 27.0604C10.2857 26.8872 10.282 26.447 10.2828 26.2477C10.0902 25.5852 9.85448 24.9382 9.68271 24.2697C9.27299 22.6747 8.46916 21.6649 7.51439 20.3309C6.62134 19.0825 5.66214 18.298 4.25601 17.6719C4.07308 17.6273 2.59705 17.2659 2.0758 17.0584C1.31436 16.7543 0.951471 16.2449 0.819856 15.9705C0.596035 15.505 0.573004 15.0983 0.61762 14.7592C0.683799 14.2588 0.908365 13.8305 1.30693 13.4847C1.5538 13.2698 1.92262 13.0609 2.41637 12.959C2.79783 12.8794 3.80981 12.8333 3.95184 12.8267ZM12.611 10.227C12.6794 10.3795 12.7522 10.5327 12.8296 10.6873C14.4774 13.9785 16.32 15.8159 18.5597 16.7074L18.6348 16.7364C17.1365 17.8489 15.7801 19.0921 14.7436 20.2841C14.3167 20.7749 13.7516 21.7943 13.1411 22.8398C12.5864 21.0366 11.6792 19.7621 10.5386 18.1671C9.66709 16.9499 8.75397 16.0338 7.63189 15.2872C8.50263 14.8403 9.33321 14.3168 10.0567 13.7056C11.2613 12.6876 12.0577 11.5082 12.611 10.227Z" fill="#FEC554"/>
</g>
<defs>
<clipPath id="clip0_547_1777">
<rect width="29" height="29" fill="white" transform="translate(0.258789)"/>
</clipPath>
</defs>
</svg>
