<svg width="60" height="60" viewBox="0 0 60 60" fill="none" xmlns="http://www.w3.org/2000/svg">
<path fill-rule="evenodd" clip-rule="evenodd" d="M56.8071 18.8819C45.5459 39.8219 23.0505 48.3351 2.15717 36.5464C1.46162 36.1539 0.579593 36.3993 0.187046 37.0863C-0.205502 37.7855 0.0398667 38.6687 0.735412 39.0612C23.1302 51.7086 47.2829 42.6924 59.3538 20.2558C59.7316 19.5566 59.4679 18.6732 58.765 18.293C58.0621 17.9249 57.1849 18.1827 56.8071 18.8819Z" fill="#FEC554"/>
<path d="M19.7393 27.5657C22.0655 27.5657 23.9512 25.68 23.9512 23.3538C23.9512 21.0276 22.0655 19.1418 19.7393 19.1418C17.4131 19.1418 15.5273 21.0276 15.5273 23.3538C15.5273 25.68 17.4131 27.5657 19.7393 27.5657Z" fill="#FEC554"/>
<path d="M37.1765 23.0852C39.4572 23.0852 41.3061 21.2364 41.3061 18.9556C41.3061 16.6749 39.4572 14.826 37.1765 14.826C34.8957 14.826 33.0469 16.6749 33.0469 18.9556C33.0469 21.2364 34.8957 23.0852 37.1765 23.0852Z" fill="#FEC554"/>
</svg>
