<svg width="64" height="64" viewBox="0 0 64 64" fill="none" xmlns="http://www.w3.org/2000/svg">
<path d="M41.9201 31.6C39.9001 26.91 36.1001 24 32.0001 24C27.9001 24 24.1001 26.91 22.0801 31.6C22.025 31.7262 21.9966 31.8623 21.9966 32C21.9966 32.1377 22.025 32.2738 22.0801 32.4C24.1001 37.09 27.9001 40 32.0001 40C36.1001 40 39.9001 37.09 41.9201 32.4C41.9751 32.2738 42.0036 32.1377 42.0036 32C42.0036 31.8623 41.9751 31.7262 41.9201 31.6V31.6ZM32.0001 38C28.8201 38 25.8301 35.71 24.1001 32C25.8301 28.29 28.8201 26 32.0001 26C35.1801 26 38.1701 28.29 39.9001 32C38.1701 35.71 35.1801 38 32.0001 38ZM32.0001 28C31.2089 28 30.4356 28.2346 29.7778 28.6741C29.12 29.1136 28.6073 29.7384 28.3045 30.4693C28.0018 31.2002 27.9226 32.0044 28.0769 32.7804C28.2313 33.5563 28.6122 34.269 29.1716 34.8284C29.731 35.3878 30.4438 35.7688 31.2197 35.9231C31.9956 36.0775 32.7999 35.9983 33.5308 35.6955C34.2617 35.3928 34.8864 34.8801 35.3259 34.2223C35.7655 33.5645 36.0001 32.7911 36.0001 32C36.0001 30.9391 35.5786 29.9217 34.8285 29.1716C34.0783 28.4214 33.0609 28 32.0001 28V28ZM32.0001 34C31.6045 34 31.2178 33.8827 30.8889 33.6629C30.56 33.4432 30.3037 33.1308 30.1523 32.7654C30.0009 32.3999 29.9613 31.9978 30.0385 31.6098C30.1157 31.2219 30.3061 30.8655 30.5859 30.5858C30.8656 30.3061 31.2219 30.1156 31.6099 30.0384C31.9978 29.9613 32.4 30.0009 32.7654 30.1522C33.1309 30.3036 33.4432 30.56 33.663 30.8889C33.8828 31.2178 34.0001 31.6044 34.0001 32C34.0001 32.5304 33.7894 33.0391 33.4143 33.4142C33.0392 33.7893 32.5305 34 32.0001 34Z" fill="#AB79FF"/>
<rect x="0.5" y="0.5" width="63" height="63" rx="31.5" stroke="#AB79FF" stroke-linecap="round" stroke-linejoin="bevel" stroke-dasharray="12 13"/>
</svg>
