<svg width="100" height="100" viewBox="0 0 100 100" fill="none" xmlns="http://www.w3.org/2000/svg">
<path d="M47.875 33.1V35.275C47.875 35.9083 47.8 36.425 47.65 36.825C47.5167 37.2083 47.3833 37.5417 47.25 37.825L32.7 67.275C32.4667 67.7583 32.1417 68.1667 31.725 68.5C31.3083 68.8333 30.75 69 30.05 69H26.55L41.325 39.975C41.575 39.5083 41.825 39.0833 42.075 38.7C42.325 38.3 42.6 37.9333 42.9 37.6H24.55C24.2333 37.6 23.9583 37.4833 23.725 37.25C23.4917 37.0167 23.375 36.7417 23.375 36.425V33.1H47.875ZM63.2863 65.525C64.4197 65.525 65.428 65.3667 66.3113 65.05C67.1947 64.7333 67.9447 64.2917 68.5613 63.725C69.178 63.1417 69.6447 62.45 69.9613 61.65C70.278 60.85 70.4363 59.975 70.4363 59.025C70.4363 57.8583 70.2447 56.8583 69.8613 56.025C69.478 55.175 68.9613 54.4833 68.3113 53.95C67.6613 53.4 66.903 53 66.0363 52.75C65.1697 52.4833 64.253 52.35 63.2863 52.35C62.303 52.35 61.378 52.4833 60.5113 52.75C59.6447 53 58.8863 53.4 58.2363 53.95C57.5863 54.4833 57.0697 55.175 56.6863 56.025C56.3197 56.8583 56.1363 57.8583 56.1363 59.025C56.1363 59.975 56.2947 60.85 56.6113 61.65C56.928 62.45 57.3947 63.1417 58.0113 63.725C58.628 64.2917 59.378 64.7333 60.2613 65.05C61.1447 65.3667 62.153 65.525 63.2863 65.525ZM63.2863 36.45C62.253 36.45 61.3447 36.6083 60.5613 36.925C59.7947 37.225 59.153 37.6417 58.6363 38.175C58.1197 38.7083 57.728 39.325 57.4613 40.025C57.2113 40.725 57.0863 41.475 57.0863 42.275C57.0863 43.0583 57.1947 43.825 57.4113 44.575C57.6447 45.3083 58.003 45.9667 58.4863 46.55C58.9863 47.1167 59.628 47.575 60.4113 47.925C61.1947 48.275 62.153 48.45 63.2863 48.45C64.403 48.45 65.353 48.275 66.1363 47.925C66.9363 47.575 67.578 47.1167 68.0613 46.55C68.5613 45.9667 68.9197 45.3083 69.1363 44.575C69.3697 43.825 69.4863 43.0583 69.4863 42.275C69.4863 41.475 69.353 40.725 69.0863 40.025C68.8363 39.325 68.453 38.7083 67.9363 38.175C67.4197 37.6417 66.7697 37.225 65.9863 36.925C65.2197 36.6083 64.3197 36.45 63.2863 36.45ZM68.6613 50.275C70.8947 50.9417 72.5863 52.0167 73.7363 53.5C74.903 54.9833 75.4863 56.8583 75.4863 59.125C75.4863 60.6917 75.1863 62.1083 74.5863 63.375C74.003 64.6417 73.1697 65.725 72.0863 66.625C71.0197 67.5083 69.7363 68.1917 68.2363 68.675C66.7363 69.1583 65.0863 69.4 63.2863 69.4C61.4863 69.4 59.8363 69.1583 58.3363 68.675C56.8363 68.1917 55.5447 67.5083 54.4613 66.625C53.3947 65.725 52.5613 64.6417 51.9613 63.375C51.378 62.1083 51.0863 60.6917 51.0863 59.125C51.0863 56.8583 51.6613 54.9833 52.8113 53.5C53.978 52.0167 55.678 50.9417 57.9113 50.275C56.0613 49.575 54.6697 48.5333 53.7363 47.15C52.803 45.75 52.3363 44.0917 52.3363 42.175C52.3363 40.8417 52.5947 39.6 53.1113 38.45C53.6447 37.2833 54.3863 36.275 55.3363 35.425C56.303 34.575 57.4613 33.9083 58.8113 33.425C60.1613 32.9417 61.653 32.7 63.2863 32.7C64.9197 32.7 66.4113 32.9417 67.7613 33.425C69.1113 33.9083 70.2613 34.575 71.2113 35.425C72.178 36.275 72.9197 37.2833 73.4363 38.45C73.9697 39.6 74.2363 40.8417 74.2363 42.175C74.2363 44.0917 73.7697 45.75 72.8363 47.15C71.903 48.5333 70.5113 49.575 68.6613 50.275Z" fill="#FF5E87"/>
<rect x="0.5" y="0.5" width="99" height="99" rx="49.5" stroke="#FF5E87" stroke-linecap="round" stroke-dasharray="12 12"/>
</svg>
