<svg width="100" height="100" viewBox="0 0 100 100" fill="none" xmlns="http://www.w3.org/2000/svg">
<path d="M30.45 46.5C32.2833 46.1167 33.9417 45.925 35.425 45.925C37.2917 45.925 38.9417 46.2083 40.375 46.775C41.8083 47.325 43.0083 48.0917 43.975 49.075C44.9583 50.0417 45.6917 51.1917 46.175 52.525C46.675 53.8417 46.925 55.275 46.925 56.825C46.925 58.725 46.5917 60.45 45.925 62C45.2583 63.55 44.3417 64.875 43.175 65.975C42.0083 67.075 40.625 67.925 39.025 68.525C37.4417 69.1083 35.7333 69.4 33.9 69.4C32.8167 69.4 31.7833 69.2917 30.8 69.075C29.8333 68.8583 28.925 68.575 28.075 68.225C27.225 67.8583 26.4333 67.4417 25.7 66.975C24.9833 66.5083 24.3417 66.0167 23.775 65.5L25.275 63.4C25.5917 62.9333 26.0167 62.7 26.55 62.7C26.9 62.7 27.2833 62.8333 27.7 63.1C28.1333 63.35 28.6417 63.6333 29.225 63.95C29.8083 64.2667 30.5 64.5583 31.3 64.825C32.1 65.075 33.05 65.2 34.15 65.2C35.3667 65.2 36.4583 65.0083 37.425 64.625C38.4083 64.225 39.2333 63.6667 39.9 62.95C40.5833 62.2333 41.1 61.375 41.45 60.375C41.8167 59.375 42 58.2667 42 57.05C42 55.9667 41.8417 54.9917 41.525 54.125C41.2083 53.2583 40.7333 52.5167 40.1 51.9C39.4667 51.2833 38.675 50.8167 37.725 50.5C36.775 50.1667 35.6667 50 34.4 50C32.6333 50 30.75 50.3167 28.75 50.95L25.675 50.05L28.6 33.1H45.8V35.225C45.8 35.925 45.575 36.5 45.125 36.95C44.6917 37.3833 43.9583 37.6 42.925 37.6H32L30.45 46.5ZM75.7961 54.075H65.7211V64.7H61.7461V54.075H51.7211V50.375H61.7461V39.8H65.7211V50.375H75.7961V54.075Z" fill="#00DAA3"/>
<rect x="0.5" y="0.5" width="99" height="99" rx="49.5" stroke="#00DAA3" stroke-linecap="round" stroke-dasharray="12 12"/>
</svg>
