<svg width="100" height="100" viewBox="0 0 100 100" fill="none" xmlns="http://www.w3.org/2000/svg">
<path d="M49.9777 65.525C51.1111 65.525 52.1194 65.3667 53.0027 65.05C53.8861 64.7333 54.6361 64.2917 55.2527 63.725C55.8694 63.1417 56.3361 62.45 56.6527 61.65C56.9694 60.85 57.1277 59.975 57.1277 59.025C57.1277 57.8583 56.9361 56.8583 56.5527 56.025C56.1694 55.175 55.6527 54.4833 55.0027 53.95C54.3527 53.4 53.5944 53 52.7277 52.75C51.8611 52.4833 50.9444 52.35 49.9777 52.35C48.9944 52.35 48.0694 52.4833 47.2027 52.75C46.3361 53 45.5777 53.4 44.9277 53.95C44.2777 54.4833 43.7611 55.175 43.3777 56.025C43.0111 56.8583 42.8277 57.8583 42.8277 59.025C42.8277 59.975 42.9861 60.85 43.3027 61.65C43.6194 62.45 44.0861 63.1417 44.7027 63.725C45.3194 64.2917 46.0694 64.7333 46.9527 65.05C47.8361 65.3667 48.8444 65.525 49.9777 65.525ZM49.9777 36.45C48.9444 36.45 48.0361 36.6083 47.2527 36.925C46.4861 37.225 45.8444 37.6417 45.3277 38.175C44.8111 38.7083 44.4194 39.325 44.1527 40.025C43.9027 40.725 43.7777 41.475 43.7777 42.275C43.7777 43.0583 43.8861 43.825 44.1027 44.575C44.3361 45.3083 44.6944 45.9667 45.1777 46.55C45.6777 47.1167 46.3194 47.575 47.1027 47.925C47.8861 48.275 48.8444 48.45 49.9777 48.45C51.0944 48.45 52.0444 48.275 52.8277 47.925C53.6277 47.575 54.2694 47.1167 54.7527 46.55C55.2527 45.9667 55.6111 45.3083 55.8277 44.575C56.0611 43.825 56.1777 43.0583 56.1777 42.275C56.1777 41.475 56.0444 40.725 55.7777 40.025C55.5277 39.325 55.1444 38.7083 54.6277 38.175C54.1111 37.6417 53.4611 37.225 52.6777 36.925C51.9111 36.6083 51.0111 36.45 49.9777 36.45ZM55.3527 50.275C57.5861 50.9417 59.2777 52.0167 60.4277 53.5C61.5944 54.9833 62.1777 56.8583 62.1777 59.125C62.1777 60.6917 61.8777 62.1083 61.2777 63.375C60.6944 64.6417 59.8611 65.725 58.7777 66.625C57.7111 67.5083 56.4277 68.1917 54.9277 68.675C53.4277 69.1583 51.7777 69.4 49.9777 69.4C48.1777 69.4 46.5277 69.1583 45.0277 68.675C43.5277 68.1917 42.2361 67.5083 41.1527 66.625C40.0861 65.725 39.2527 64.6417 38.6527 63.375C38.0694 62.1083 37.7777 60.6917 37.7777 59.125C37.7777 56.8583 38.3527 54.9833 39.5027 53.5C40.6694 52.0167 42.3694 50.9417 44.6027 50.275C42.7527 49.575 41.3611 48.5333 40.4277 47.15C39.4944 45.75 39.0277 44.0917 39.0277 42.175C39.0277 40.8417 39.2861 39.6 39.8027 38.45C40.3361 37.2833 41.0777 36.275 42.0277 35.425C42.9944 34.575 44.1527 33.9083 45.5027 33.425C46.8527 32.9417 48.3444 32.7 49.9777 32.7C51.6111 32.7 53.1027 32.9417 54.4527 33.425C55.8027 33.9083 56.9527 34.575 57.9027 35.425C58.8694 36.275 59.6111 37.2833 60.1277 38.45C60.6611 39.6 60.9277 40.8417 60.9277 42.175C60.9277 44.0917 60.4611 45.75 59.5277 47.15C58.5944 48.5333 57.2027 49.575 55.3527 50.275Z" fill="#3293FE"/>
<rect x="0.5" y="0.5" width="99" height="99" rx="49.5" stroke="#3293FE" stroke-linecap="round" stroke-dasharray="12 12"/>
</svg>
